<?xml version="1.0" encoding="UTF-8" standalone="no"?>
<!-- Created with Inkscape (http://www.inkscape.org/) -->

<svg
   xmlns:dc="http://purl.org/dc/elements/1.1/"
   xmlns:cc="http://creativecommons.org/ns#"
   xmlns:rdf="http://www.w3.org/1999/02/22-rdf-syntax-ns#"
   xmlns:svg="http://www.w3.org/2000/svg"
   xmlns="http://www.w3.org/2000/svg"
   version="1.2"
   width="700"
   height="600"
   viewBox="0 0 19755.555 16933.333"
   clip-path="url(#presentation_clip_path)"
   id="svg2"
   xml:space="preserve"
   style="fill-rule:evenodd;stroke-width:28.22200012;stroke-linejoin:round"><metadata
     id="metadata296"><rdf:RDF><cc:Work
         rdf:about=""><dc:format>image/svg+xml</dc:format><dc:type
           rdf:resource="http://purl.org/dc/dcmitype/StillImage" /><dc:title></dc:title></cc:Work></rdf:RDF></metadata><defs
     id="defs4"><clipPath
       id="presentation_clip_path"><rect
         width="20000"
         height="20000"
         x="0"
         y="0"
         id="rect7" /></clipPath></defs><defs
     id="defs9"><g
       id="g11" /></defs><defs
     id="defs13"><g
       transform="scale(4.8828125e-4,-4.8828125e-4)"
       id="bullet-char-template(57356)"><path
         d="M 580,1141 1163,571 580,0 -4,571 580,1141 z"
         id="path16" /></g><g
       transform="scale(4.8828125e-4,-4.8828125e-4)"
       id="bullet-char-template(57354)"><path
         d="m 8,1128 1129,0 L 1137,0 8,0 8,1128 z"
         id="path19" /></g><g
       transform="scale(4.8828125e-4,-4.8828125e-4)"
       id="bullet-char-template(10146)"><path
         d="M 174,0 602,739 174,1481 1456,739 174,0 z m 1184,739 -1049,607 350,-607 699,0 z"
         id="path22" /></g><g
       transform="scale(4.8828125e-4,-4.8828125e-4)"
       id="bullet-char-template(10132)"><path
         d="M 2015,739 1276,0 717,0 l 543,543 -1086,0 0,393 1086,0 -543,545 557,0 741,-742 z"
         id="path25" /></g><g
       transform="scale(4.8828125e-4,-4.8828125e-4)"
       id="bullet-char-template(10007)"><path
         d="m 0,-2 c -7,16 -16,29 -25,39 l 381,530 c -94,256 -141,385 -141,387 0,25 13,38 40,38 9,0 21,-2 34,-5 21,4 42,12 65,25 l 27,-13 111,-251 280,301 64,-25 24,25 c 21,-10 41,-24 62,-43 C 886,937 835,863 770,784 769,783 710,716 594,584 L 774,223 c 0,-27 -21,-55 -63,-84 l 16,-20 C 717,90 699,76 672,76 641,76 570,178 457,381 L 164,-76 c -22,-34 -53,-51 -92,-51 -42,0 -63,17 -64,51 -7,9 -10,24 -10,44 0,9 1,19 2,30 z"
         id="path28" /></g><g
       transform="scale(4.8828125e-4,-4.8828125e-4)"
       id="bullet-char-template(10004)"><path
         d="M 285,-33 C 182,-33 111,30 74,156 52,228 41,333 41,471 c 0,78 14,145 41,201 34,71 87,106 158,106 53,0 88,-31 106,-94 l 23,-176 c 8,-64 28,-97 59,-98 l 735,706 c 11,11 33,17 66,17 42,0 63,-15 63,-46 l 0,-122 c 0,-36 -10,-64 -30,-84 L 442,47 C 390,-6 338,-33 285,-33 z"
         id="path31" /></g><g
       transform="scale(4.8828125e-4,-4.8828125e-4)"
       id="bullet-char-template(9679)"><path
         d="M 813,0 C 632,0 489,54 383,161 276,268 223,411 223,592 c 0,181 53,324 160,431 106,107 249,161 430,161 179,0 323,-54 432,-161 108,-107 162,-251 162,-431 0,-180 -54,-324 -162,-431 C 1136,54 992,0 813,0 z"
         id="path34" /></g><g
       transform="scale(4.8828125e-4,-4.8828125e-4)"
       id="bullet-char-template(8226)"><path
         d="m 346,457 c -73,0 -137,26 -191,78 -54,51 -81,114 -81,188 0,73 27,136 81,188 54,52 118,78 191,78 73,0 134,-26 185,-79 51,-51 77,-114 77,-187 0,-75 -25,-137 -76,-188 -50,-52 -112,-78 -186,-78 z"
         id="path37" /></g><g
       transform="scale(4.8828125e-4,-4.8828125e-4)"
       id="bullet-char-template(8211)"><path
         d="m -4,459 1139,0 0,147 -1139,0 0,-147 z"
         id="path40" /></g></defs><defs
     id="defs42" /><g
     transform="translate(0,-3066.6672)"
     id="g44"><g
       id="id2"><g
         id="bg-id2" /><g
         id="bo-id2" /></g></g><g
     transform="translate(0,-3066.6672)"
     id="g49"><g
       id="g51"><g
         clip-path="url(#presentation_clip_path)"
         id="id1"><g
           transform="translate(-121.7225,1533.3337)"
           id="g54"><g
             id="g56"><g
               id="g58"><g
                 id="id3"><path
                   d="m 1913,5450 0,0 0,1701 0,0 9001,0 0,0 0,-1701 0,0 -9001,0 z m 0,0 0,0 z m 9001,1701 0,0 z"
                   id="path61"
                   style="fill:#cccccc;stroke:none" /><path
                   d="m 1913,5450 0,0 0,1701 0,0 9001,0 0,0 0,-1701 0,0 -9001,0 z"
                   id="path63"
                   style="fill:none;stroke:#000000;stroke-width:50" /><text
                   id="text65"><tspan
                     id="tspan67"
                     style="font-size:564px;font-weight:700;font-family:'Arial, sans-serif'"><tspan
                       x="3931"
                       y="6182"
                       id="tspan69"><tspan
                         id="tspan71"
                         style="fill:#000000;stroke:none">(a)</tspan><tspan
                         id="tspan73"
                         style="font-style:italic;font-weight:400;fill:#000000;stroke:none"> BLAST</tspan><tspan
                         id="tspan75"
                         style="font-weight:400;fill:#000000;stroke:none"> or </tspan><tspan
                         id="tspan77"
                         style="font-style:italic;font-weight:400;fill:#000000;stroke:none">LAST:</tspan></tspan></tspan><tspan
                     id="tspan79"
                     style="font-size:564px;font-weight:400;font-family:'Arial, sans-serif'"><tspan
                       x="3163"
                       y="6809"
                       id="tspan81"><tspan
                         id="tspan83"
                         style="fill:#000000;stroke:none">nucleotide local alignment</tspan></tspan></tspan></text>
</g></g><g
               id="g85"><g
                 id="id4"><path
                   d="m 9938,3650 0,901 -3525,0 0,607"
                   id="path88"
                   style="fill:none;stroke:#000000;stroke-width:50" /><path
                   d="m 6414,5450 199,-319 -400,0 201,319 z"
                   id="path90"
                   style="fill:#000000;stroke:none" /></g></g><g
               id="g92"><g
                 id="id5"><path
                   d="m 7699,16350 5920,0 -1442,1600 -5919,0 1441,-1600 0,0 z m -1441,0 0,0 z m 7361,1601 0,0 z"
                   id="path95"
                   style="fill:#cccccc;stroke:none" /><path
                   d="m 7699,16350 5920,0 -1442,1600 -5919,0 1441,-1600 0,0 z"
                   id="path97"
                   style="fill:none;stroke:#000000;stroke-width:50" /><text
                   x="535.44189"
                   id="text99"><tspan
                     id="tspan101"
                     style="font-size:494px;font-style:italic;font-weight:400;font-family:'Arial, sans-serif'"><tspan
                       x="8070.4419"
                       y="17322"
                       id="tspan103"><tspan
                         id="tspan105"
                         style="fill:#000000;stroke:none">output:</tspan><tspan
                         id="tspan107"
                         style="font-style:normal;fill:#000000;stroke:none"> taxon IDs</tspan></tspan></tspan></text>
</g></g><g
               id="g109"><g
                 id="id6"><path
                   d="m 7699,2050 5920,0 -1442,1600 -5919,0 1441,-1600 0,0 z m -1441,0 0,0 z m 7361,1601 0,0 z"
                   id="path112"
                   style="fill:#cccccc;stroke:none" /><path
                   d="m 7699,2050 5920,0 -1442,1600 -5919,0 1441,-1600 0,0 z"
                   id="path114"
                   style="fill:none;stroke:#000000;stroke-width:50" /><text
                   id="text116"><tspan
                     id="tspan118"
                     style="font-size:494px;font-style:italic;font-weight:400;font-family:'Arial, sans-serif'"><tspan
                       x="7813"
                       y="3022"
                       id="tspan120"><tspan
                         id="tspan122"
                         style="fill:#000000;stroke:none">input:</tspan><tspan
                         id="tspan124"
                         style="font-style:normal;fill:#000000;stroke:none"> query FASTA</tspan></tspan></tspan></text>
</g></g><g
               id="g126"><g
                 id="id7"><g
                   id="g3273"><path
                     d="m 19337,11750 0,3300 -18675,0 0,-6600 18675,0 0,3300 z"
                     id="path129"
                     style="fill:#e6e6e6;stroke:none" /><path
                     d="m 19337,11750 0,3300 -18675,0 0,-6600 18675,0 0,3300 z"
                     id="path131"
                     style="fill:none;stroke:#808080;stroke-width:40" /><text
                     x="-14487.871"
                     y="-11627.577"
                     transform="matrix(0,-1,1,0,0,0)"
                     id="text133"><tspan
                       id="tspan135"
                       style="font-size:635px;font-style:italic;font-weight:400;font-family:'Arial, sans-serif'"><tspan
                         x="-13103.871"
                         y="1437.4232"
                         transform="matrix(0,-1,1,0,-11681,14449)"
                         id="tspan137"><tspan
                           id="tspan139"
                           style="fill:#000000;stroke:none">taxator-tk</tspan></tspan></tspan></text>
</g></g></g><g
               id="g141"><g
                 id="id8"><path
                   d="m 1913,9398 0,0 0,2204 0,0 9001,0 0,0 0,-2204 0,0 -9001,0 z m 0,0 0,0 z m 9001,2204 0,0 z"
                   id="path144"
                   style="fill:#cccccc;stroke:none" /><path
                   d="m 1913,9398 0,0 0,2204 0,0 9001,0 0,0 0,-2204 0,0 -9001,0 z"
                   id="path146"
                   style="fill:none;stroke:#000000;stroke-width:50" /><text
                   id="text148"><tspan
                     id="tspan150"
                     style="font-size:564px;font-weight:700;font-family:'Arial, sans-serif'"><tspan
                       x="5038"
                       y="10068"
                       id="tspan152"><tspan
                         id="tspan154"
                         style="fill:#000000;stroke:none">(b)</tspan><tspan
                         id="tspan156"
                         style="font-style:italic;font-weight:400;fill:#000000;stroke:none"> taxator:</tspan></tspan></tspan><tspan
                     id="tspan158"
                     style="font-size:564px;font-weight:400;font-family:'Arial, sans-serif'"><tspan
                       x="2678"
                       y="10695"
                       id="tspan160"><tspan
                         id="tspan162"
                         style="fill:#000000;stroke:none">determine similarity segments</tspan></tspan></tspan><tspan
                     id="tspan164"
                     style="font-size:564px;font-weight:400;font-family:'Arial, sans-serif'"><tspan
                       x="3745"
                       y="11322"
                       id="tspan166"><tspan
                         id="tspan168"
                         style="fill:#000000;stroke:none">taxonomic placement</tspan></tspan></tspan></text>
</g></g><g
               id="g170"><g
                 id="id9"><path
                   d="m 1957,12782 0,0 0,1569 0,0 8913,0 0,0 0,-1569 0,0 -8913,0 z m 0,0 0,0 z m 8913,1569 0,0 z"
                   id="path173"
                   style="fill:#cccccc;stroke:none" /><path
                   d="m 1957,12782 0,0 0,1569 0,0 8913,0 0,0 0,-1569 0,0 -8913,0 z"
                   id="path175"
                   style="fill:none;stroke:#000000;stroke-width:50" /><text
                   id="text177"><tspan
                     id="tspan179"
                     style="font-size:564px;font-weight:700;font-family:'Arial, sans-serif'"><tspan
                       x="5131"
                       y="13448"
                       id="tspan181"><tspan
                         id="tspan183"
                         style="fill:#000000;stroke:none">(c) </tspan><tspan
                         id="tspan185"
                         style="font-style:italic;font-weight:400;fill:#000000;stroke:none">binner:</tspan></tspan></tspan><tspan
                     id="tspan187"
                     style="font-size:564px;font-weight:400;font-family:'Arial, sans-serif'"><tspan
                       x="2521"
                       y="14075"
                       id="tspan189"><tspan
                         id="tspan191"
                         style="fill:#000000;stroke:none">binning of complete sequences</tspan></tspan></tspan></text>
</g></g><g
               id="g193"><g
                 id="id10"><path
                   d="m 6413,11602 0,888"
                   id="path196"
                   style="fill:none;stroke:#000000;stroke-width:50" /><path
                   d="m 6414,12782 199,-319 -400,0 201,319 z"
                   id="path198"
                   style="fill:#000000;stroke:none" /></g></g><g
               id="g200"><g
                 id="id11"><path
                   d="m 13807,8949 4907,0 -1195,1232 -4906,0 1194,-1232 0,0 z m -1194,0 0,0 z m 6101,1232 0,0 z"
                   id="path203"
                   style="fill:#cccccc;stroke:none" /><path
                   d="m 13807,8949 4907,0 -1195,1232 -4906,0 1194,-1232 0,0 z"
                   id="path205"
                   style="fill:none;stroke:#000000;stroke-width:50" /><text
                   id="text207"><tspan
                     id="tspan209"
                     style="font-size:494px;font-style:italic;font-weight:400;font-family:'Arial, sans-serif'"><tspan
                       x="15056"
                       y="9459"
                       id="tspan211"><tspan
                         id="tspan213"
                         style="fill:#000000;stroke:none">input:</tspan></tspan><tspan
                       x="14215"
                       y="10014"
                       id="tspan215"><tspan
                         id="tspan217"
                         style="font-style:normal;fill:#000000;stroke:none">query FASTA</tspan></tspan></tspan></text>
</g></g><g
               id="g219"><g
                 id="id12"><path
                   d="m 13807,10718 4907,0 -1195,1232 -4906,0 1194,-1232 0,0 z m -1194,0 0,0 z m 6101,1232 0,0 z"
                   id="path222"
                   style="fill:#cccccc;stroke:none" /><path
                   d="m 13807,10718 4907,0 -1195,1232 -4906,0 1194,-1232 0,0 z"
                   id="path224"
                   style="fill:none;stroke:#000000;stroke-width:50" /><text
                   id="text226"><tspan
                     id="tspan228"
                     style="font-size:494px;font-style:italic;font-weight:400;font-family:'Arial, sans-serif'"><tspan
                       x="15055"
                       y="11228"
                       id="tspan230"><tspan
                         id="tspan232"
                         style="fill:#000000;stroke:none">input:</tspan></tspan><tspan
                       x="13783"
                       y="11783"
                       id="tspan234"><tspan
                         id="tspan236"
                         style="font-style:normal;fill:#000000;stroke:none">reference FASTA</tspan></tspan></tspan></text>
</g></g><g
               id="g238"><g
                 id="id13"><path
                   d="m 13223,9566 -1136,0 -648,934 -234,0"
                   id="path241"
                   style="fill:none;stroke:#000000;stroke-width:50" /><path
                   d="m 10913,10501 319,199 0,-400 -319,201 z"
                   id="path243"
                   style="fill:#000000;stroke:none" /></g></g><g
               id="g245"><g
                 id="id14"><path
                   d="m 13223,11335 -1136,0 -648,-835 -234,0"
                   id="path248"
                   style="fill:none;stroke:#000000;stroke-width:50" /><path
                   d="m 10913,10501 319,199 0,-400 -319,201 z"
                   id="path250"
                   style="fill:#000000;stroke:none" /></g></g><g
               id="g252"><g
                 id="id15"><path
                   d="m 6413,7150 0,1957"
                   id="path255"
                   style="fill:none;stroke:#000000;stroke-width:50" /><path
                   d="m 6414,9399 199,-319 -400,0 201,319 z"
                   id="path257"
                   style="fill:#000000;stroke:none" /></g></g><g
               id="g259"><g
                 id="id16"><path
                   d="m 6413,14350 0,1000 3525,0 0,708"
                   id="path262"
                   style="fill:none;stroke:#000000;stroke-width:50" /><path
                   d="m 9939,16350 199,-319 -400,0 201,319 z"
                   id="path264"
                   style="fill:#000000;stroke:none" /></g></g><g
               id="g266"><g
                 id="id17"><path
                   d="m 13807,5684 4907,0 -1195,1232 -4906,0 1194,-1232 0,0 z m -1194,0 0,0 z m 6101,1232 0,0 z"
                   id="path269"
                   style="fill:#cccccc;stroke:none" /><path
                   d="m 13807,5684 4907,0 -1195,1232 -4906,0 1194,-1232 0,0 z"
                   id="path271"
                   style="fill:none;stroke:#000000;stroke-width:50" /><text
                   id="text273"><tspan
                     id="tspan275"
                     style="font-size:494px;font-style:italic;font-weight:400;font-family:'Arial, sans-serif'"><tspan
                       x="13938"
                       y="6194"
                       id="tspan277"><tspan
                         id="tspan279"
                         style="fill:#000000;stroke:none">input:</tspan><tspan
                         id="tspan281"
                         style="font-style:normal;fill:#000000;stroke:none"> reference</tspan></tspan><tspan
                       x="14260"
                       y="6749"
                       id="tspan283"><tspan
                         id="tspan285"
                         style="font-style:normal;fill:#000000;stroke:none">search index</tspan></tspan></tspan></text>
</g></g><g
               id="g287"><g
                 id="id18"><path
                   d="m 13223,6301 -1136,0 -648,-1 -179,0"
                   id="path290"
                   style="fill:none;stroke:#000000;stroke-width:50" /><path
                   d="m 10913,6301 379,237 0,-475 -379,238 z"
                   id="path292"
                   style="fill:#000000;stroke:none" /></g></g></g></g></g></g></g></svg>