<?xml version="1.0" encoding="UTF-8" standalone="no"?>
<svg
   xmlns:dc="http://purl.org/dc/elements/1.1/"
   xmlns:cc="http://creativecommons.org/ns#"
   xmlns:rdf="http://www.w3.org/1999/02/22-rdf-syntax-ns#"
   xmlns:svg="http://www.w3.org/2000/svg"
   xmlns="http://www.w3.org/2000/svg"
   xmlns:sodipodi="http://sodipodi.sourceforge.net/DTD/sodipodi-0.dtd"
   xmlns:inkscape="http://www.inkscape.org/namespaces/inkscape"
   version="1.1"
   width="26.573811cm"
   height="22.421911cm"
   viewBox="0 0 1004.3645 847.44233"
   id="svg93"
   sodipodi:docname="wordcloud.svg"
   inkscape:version="0.92.0 unknown"
   inkscape:export-filename="/home/joh/ownCloud/Dissertation/Literature-Mining/wordcloud-R/wordcloud.png"
   inkscape:export-xdpi="96"
   inkscape:export-ydpi="96">
  <metadata
     id="metadata97">
    <rdf:RDF>
      <cc:Work
         rdf:about="">
        <dc:format>image/svg+xml</dc:format>
        <dc:type
           rdf:resource="http://purl.org/dc/dcmitype/StillImage" />
        <dc:title></dc:title>
      </cc:Work>
    </rdf:RDF>
  </metadata>
  <sodipodi:namedview
     pagecolor="#ffffff"
     bordercolor="#666666"
     borderopacity="1"
     objecttolerance="10"
     gridtolerance="10"
     guidetolerance="10"
     inkscape:pageopacity="0"
     inkscape:pageshadow="2"
     inkscape:window-width="1920"
     inkscape:window-height="994"
     id="namedview95"
     showgrid="false"
     units="cm"
     fit-margin-top="0.5"
     fit-margin-left="0.5"
     fit-margin-right="0.5"
     fit-margin-bottom="0.5"
     inkscape:zoom="0.43457604"
     inkscape:cx="375.58298"
     inkscape:cy="379.46292"
     inkscape:window-x="0"
     inkscape:window-y="26"
     inkscape:window-maximized="1"
     inkscape:current-layer="svg93" />
  <defs
     id="defs4">
    <style
       type="text/css"
       id="style2"> @import url(http://fonts.googleapis.com/css?family=Arbutus Slab:normal:latin-ext); </style>
  </defs>
  <clipPath
     id="cp1">
    <path
       d="M 0,0 H 1024 V 768 H 0 Z M 0,0 H 1152 V 864 H 0 Z"
       id="path6"
       inkscape:connector-curvature="0"
       style="fill-rule:evenodd" />
  </clipPath>
  <g
     clip-path="url(#cp1)"
     id="g9"
     transform="translate(4.8810439,47.408372)" />
  <text
     x="319.40863"
     y="732.19934"
     style="font-style:normal;font-variant:normal;font-weight:normal;font-stretch:normal;font-size:107.90975952px;line-height:normal;font-family:'Arbutus Slab';text-anchor:start;opacity:1;fill:#3387a6;fill-opacity:1;stroke:none"
     dy="42.652081"
     id="text13">metagenome</text>
  <text
     x="436.63135"
     y="586.19934"
     style="font-style:normal;font-variant:normal;font-weight:normal;font-stretch:normal;font-size:107.90975952px;line-height:normal;font-family:'Arbutus Slab';text-anchor:start;opacity:1;fill:#dec171;fill-opacity:1;stroke:none"
     dy="42.652081"
     id="text15">sequence</text>
  <text
     x="75.733612"
     y="267.47995"
     style="font-style:normal;font-variant:normal;font-weight:normal;font-stretch:normal;font-size:100.71577454px;line-height:normal;font-family:'Arbutus Slab';text-anchor:start;opacity:1;fill:#651d32;stroke:none"
     dy="0.28291541"
     id="text17">community</text>
  <text
     x="214.83339"
     y="181.47995"
     style="font-style:normal;font-variant:normal;font-weight:normal;font-stretch:normal;font-size:100.71577454px;line-height:normal;font-family:'Arbutus Slab';text-anchor:start;opacity:1;fill:#509e2f;stroke:none"
     dy="0.28291541"
     id="text19">genome</text>
  <text
     x="157.439"
     y="74.760551"
     style="font-style:normal;font-variant:normal;font-weight:normal;font-stretch:normal;font-size:93.52178955px;line-height:normal;font-family:'Arbutus Slab';text-anchor:start;opacity:1;fill:#005f61;stroke:none"
     dy="36.965134"
     id="text21">taxonomic</text>
  <text
     x="417.79083"
     y="672.60236"
     style="font-style:normal;font-variant:normal;font-weight:normal;font-stretch:normal;font-size:71.93984222px;line-height:normal;font-family:'Arbutus Slab';text-anchor:start;opacity:1;fill:#651d32;stroke:none"
     dy="28.434719"
     id="text23">microbial</text>
  <text
     x="618.11066"
     y="533.883"
     style="font-style:normal;font-variant:normal;font-weight:normal;font-stretch:normal;font-size:64.74585724px;line-height:normal;font-family:'Arbutus Slab';text-anchor:start;opacity:1;fill:#005f61;fill-opacity:1;stroke:none"
     dy="25.591248"
     id="text25">software</text>
  <text
     x="161.57748"
     y="307.88297"
     style="font-style:normal;font-variant:normal;font-weight:normal;font-stretch:normal;font-size:64.74585724px;line-height:normal;font-family:'Arbutus Slab';text-anchor:start;opacity:1;fill:#dec171;fill-opacity:1;stroke:none"
     dy="25.591248"
     id="text27">analysis</text>
  <text
     x="16.874331"
     y="375.16357"
     style="font-style:normal;font-variant:normal;font-weight:normal;font-stretch:normal;font-size:57.55187225px;line-height:normal;font-family:'Arbutus Slab';text-anchor:start;opacity:1;fill:#509e2f;stroke:none"
     dy="22.747776"
     id="text29">PhyloPythiaS</text>
  <text
     x="664.27319"
     y="457.16357"
     style="font-style:normal;font-variant:normal;font-weight:normal;font-stretch:normal;font-size:57.55187225px;line-height:normal;font-family:'Arbutus Slab';text-anchor:start;opacity:1;fill:#dec171;fill-opacity:1;stroke:none"
     dy="22.747776"
     id="text31">binning</text>
  <text
     x="455.07715"
     y="435.16357"
     style="font-style:normal;font-variant:normal;font-weight:normal;font-stretch:normal;font-size:57.55187225px;line-height:normal;font-family:'Arbutus Slab';text-anchor:start;opacity:1;fill:#509e2f;stroke:none"
     dy="22.747776"
     id="text33">data</text>
  <text
     x="113.05371"
     y="552.44415"
     style="font-style:normal;font-variant:normal;font-weight:normal;font-stretch:normal;font-size:50.35788727px;line-height:normal;font-family:'Arbutus Slab';text-anchor:start;opacity:1;fill:#509e2f;stroke:none"
     dy="19.904305"
     id="text35">sequencing</text>
  <text
     x="663.66144"
     y="283.72476"
     style="font-style:normal;font-variant:normal;font-weight:normal;font-stretch:normal;font-size:43.16390228px;line-height:normal;font-family:'Arbutus Slab';text-anchor:start;opacity:1;fill:#3387a6;fill-opacity:1;stroke:none"
     dy="17.060831"
     id="text37">performance</text>
  <text
     x="450.55872"
     y="383.72476"
     style="font-style:normal;font-variant:normal;font-weight:normal;font-stretch:normal;font-size:43.16390228px;line-height:normal;font-family:'Arbutus Slab';text-anchor:start;opacity:1;fill:#509e2f;stroke:none"
     dy="17.060831"
     id="text39">sample</text>
  <text
     x="449.55173"
     y="469.72476"
     style="font-style:normal;font-variant:normal;font-weight:normal;font-stretch:normal;font-size:43.16390228px;line-height:normal;font-family:'Arbutus Slab';text-anchor:start;opacity:1;fill:#509e2f;stroke:none"
     dy="17.060831"
     id="text41">taxon</text>
  <text
     x="323.32327"
     y="519.72473"
     style="font-style:normal;font-variant:normal;font-weight:normal;font-stretch:normal;font-size:43.16390228px;line-height:normal;font-family:'Arbutus Slab';text-anchor:start;opacity:1;fill:#3387a6;fill-opacity:1;stroke:none"
     dy="17.060831"
     id="text43">bin</text>
  <text
     x="107.27689"
     y="595.00537"
     style="font-style:normal;font-variant:normal;font-weight:normal;font-stretch:normal;font-size:35.96992111px;line-height:normal;font-family:'Arbutus Slab';text-anchor:start;opacity:1;fill:#3387a6;fill-opacity:1;stroke:none"
     dy="14.21736"
     id="text45">pelotomaculum</text>
  <text
     x="145.1936"
     y="627.00537"
     style="font-style:normal;font-variant:normal;font-weight:normal;font-stretch:normal;font-size:35.96992111px;line-height:normal;font-family:'Arbutus Slab';text-anchor:start;opacity:1;fill:#3387a6;fill-opacity:1;stroke:none"
     dy="14.21736"
     id="text47">assignment</text>
  <text
     x="688.57623"
     y="345.00537"
     style="font-style:normal;font-variant:normal;font-weight:normal;font-stretch:normal;font-size:35.96992111px;line-height:normal;font-family:'Arbutus Slab';text-anchor:start;opacity:1;fill:#005f61;stroke:none"
     dy="14.21736"
     id="text49">dataset</text>
  <text
     x="682.85059"
     y="313.00537"
     style="font-style:normal;font-variant:normal;font-weight:normal;font-stretch:normal;font-size:35.96992111px;line-height:normal;font-family:'Arbutus Slab';text-anchor:start;opacity:1;fill:#3387a6;fill-opacity:1;stroke:none"
     dy="14.21736"
     id="text51">program</text>
  <text
     x="729.50922"
     y="503.00537"
     style="font-style:normal;font-variant:normal;font-weight:normal;font-stretch:normal;font-size:35.96992111px;line-height:normal;font-family:'Arbutus Slab';text-anchor:start;opacity:1;fill:#dec171;fill-opacity:1;stroke:none"
     dy="14.21736"
     id="text53">sulfate</text>
  <text
     x="690.08594"
     y="249.00536"
     style="font-style:normal;font-variant:normal;font-weight:normal;font-stretch:normal;font-size:35.96992111px;line-height:normal;font-family:'Arbutus Slab';text-anchor:start;opacity:1;fill:#005f61;stroke:none"
     dy="14.21736"
     id="text55">species</text>
  <text
     x="328.93967"
     y="35.005363"
     style="font-style:normal;font-variant:normal;font-weight:normal;font-stretch:normal;font-size:35.96992111px;line-height:normal;font-family:'Arbutus Slab';text-anchor:start;opacity:1;fill:#005f61;stroke:none"
     dy="14.21736"
     id="text57">benzene</text>
  <text
     x="715.06647"
     y="217.00536"
     style="font-style:normal;font-variant:normal;font-weight:normal;font-stretch:normal;font-size:35.96992111px;line-height:normal;font-family:'Arbutus Slab';text-anchor:start;opacity:1;fill:#3387a6;fill-opacity:1;stroke:none"
     dy="14.21736"
     id="text59">method</text>
  <text
     x="267.76666"
     y="483.00537"
     style="font-style:normal;font-variant:normal;font-weight:normal;font-stretch:normal;font-size:35.96992111px;line-height:normal;font-family:'Arbutus Slab';text-anchor:start;opacity:1;fill:#005f61;stroke:none"
     dy="14.21736"
     id="text61">gene</text>
  <text
     x="562.21539"
     y="810.28595"
     style="font-style:normal;font-variant:normal;font-weight:normal;font-stretch:normal;font-size:28.77593613px;line-height:normal;font-family:'Arbutus Slab';text-anchor:start;opacity:1;fill:#651d32;stroke:none"
     dy="11.373888"
     id="text63">computational</text>
  <text
     x="362.33478"
     y="790.28595"
     style="font-style:normal;font-variant:normal;font-weight:normal;font-stretch:normal;font-size:28.77593613px;line-height:normal;font-family:'Arbutus Slab';text-anchor:start;opacity:1;fill:#dec171;fill-opacity:1;stroke:none"
     dy="11.373888"
     id="text65">metagenomics</text>
  <text
     x="747.77252"
     y="652.28595"
     style="font-style:normal;font-variant:normal;font-weight:normal;font-stretch:normal;font-size:28.77593613px;line-height:normal;font-family:'Arbutus Slab';text-anchor:start;opacity:1;fill:#509e2f;stroke:none"
     dy="11.373888"
     id="text67">information</text>
  <text
     x="610.1593"
     y="128.28596"
     style="font-style:normal;font-variant:normal;font-weight:normal;font-stretch:normal;font-size:28.77593613px;line-height:normal;font-family:'Arbutus Slab';text-anchor:start;opacity:1;fill:#dec171;fill-opacity:1;stroke:none"
     dy="11.373888"
     id="text69">taxator-tk</text>
  <text
     x="807.42743"
     y="424.28598"
     style="font-style:normal;font-variant:normal;font-weight:normal;font-stretch:normal;font-size:28.77593613px;line-height:normal;font-family:'Arbutus Slab';text-anchor:start;opacity:1;fill:#509e2f;fill-opacity:1;stroke:none"
     dy="11.373888"
     id="text71">microbiota</text>
  <text
     x="69.079887"
     y="426.28598"
     style="font-style:normal;font-variant:normal;font-weight:normal;font-stretch:normal;font-size:28.77593613px;line-height:normal;font-family:'Arbutus Slab';text-anchor:start;opacity:1;fill:#dec171;fill-opacity:1;stroke:none"
     dy="11.373888"
     id="text73">essential</text>
  <text
     x="758.67657"
     y="684.28595"
     style="font-style:normal;font-variant:normal;font-weight:normal;font-stretch:normal;font-size:28.77593613px;line-height:normal;font-family:'Arbutus Slab';text-anchor:start;opacity:1;fill:#005f61;stroke:none"
     dy="11.373888"
     id="text75">reduction</text>
  <text
     x="84.624893"
     y="194.28596"
     style="font-style:normal;font-variant:normal;font-weight:normal;font-stretch:normal;font-size:28.77593613px;line-height:normal;font-family:'Arbutus Slab';text-anchor:start;opacity:1;fill:#005f61;stroke:none"
     dy="11.373888"
     id="text77">profiling</text>
  <text
     x="648.53058"
     y="94.285965"
     style="font-style:normal;font-variant:normal;font-weight:normal;font-stretch:normal;font-size:28.77593613px;line-height:normal;font-family:'Arbutus Slab';text-anchor:start;opacity:1;fill:#651d32;stroke:none"
     dy="11.373888"
     id="text79">assembly</text>
  <text
     x="127.40746"
     y="662.28595"
     style="font-style:normal;font-variant:normal;font-weight:normal;font-stretch:normal;font-size:28.77593613px;line-height:normal;font-family:'Arbutus Slab';text-anchor:start;opacity:1;fill:#3387a6;fill-opacity:1;stroke:none"
     dy="11.373888"
     id="text81">shotgun</text>
  <text
     x="461.03336"
     y="358.28598"
     style="font-style:normal;font-variant:normal;font-weight:normal;font-stretch:normal;font-size:28.77593613px;line-height:normal;font-family:'Arbutus Slab';text-anchor:start;opacity:1;fill:#651d32;stroke:none"
     dy="11.373888"
     id="text83">result</text>
  <text
     x="213.12161"
     y="518.28595"
     style="font-style:normal;font-variant:normal;font-weight:normal;font-stretch:normal;font-size:28.77593613px;line-height:normal;font-family:'Arbutus Slab';text-anchor:start;opacity:1;fill:#509e2f;stroke:none"
     dy="11.373888"
     id="text85">barley</text>
  <text
     x="482.19513"
     y="30.285965"
     style="font-style:normal;font-variant:normal;font-weight:normal;font-stretch:normal;font-size:28.77593613px;line-height:normal;font-family:'Arbutus Slab';text-anchor:start;opacity:1;fill:#dec171;fill-opacity:1;stroke:none"
     dy="11.373888"
     id="text87">draft</text>
  <text
     x="552.34015"
     y="412.28598"
     style="font-style:normal;font-variant:normal;font-weight:normal;font-stretch:normal;font-size:28.77593613px;line-height:normal;font-family:'Arbutus Slab';text-anchor:start;opacity:1;fill:#dec171;fill-opacity:1;stroke:none"
     dy="11.373888"
     id="text89">root</text>
  <text
     x="644.79413"
     y="502.28598"
     style="font-style:normal;font-variant:normal;font-weight:normal;font-stretch:normal;font-size:28.77593613px;line-height:normal;font-family:'Arbutus Slab';text-anchor:start;opacity:1;fill:#005f61;stroke:none"
     dy="11.373888"
     id="text91">bpl</text>
  <g
     style="fill:#e3dedb"
     id="g4572"
     transform="matrix(10.97813,1.7819114,-1.7819114,10.97813,230.02579,16.963158)"
     inkscape:export-xdpi="96"
     inkscape:export-ydpi="96">
    <g
       id="g4551"
       style="fill:#e3dedb">
      <path
         id="path4531"
         d="m 18.222,35.281 c 0.217,1.373 0.501,2.741 0.781,4.088 0.013,0.066 0.027,0.131 0.041,0.195 -2.166,-0.762 -4.288,-1.269 -6.231,-1.086 -0.084,0.008 -0.167,0.017 -0.25,0.027 C 11.558,38.632 10.595,38.917 9.7,39.339 8.388,39.957 7.222,40.868 6.285,42 5.626,42.796 5.081,43.7 4.676,44.689 4.545,45.01 4.428,45.34 4.328,45.678 4.025,46.693 2.957,47.271 1.942,46.969 0.927,46.667 0.349,45.598 0.651,44.583 c 0.33,-1.107 0.785,-2.161 1.354,-3.14 0.512,-0.882 1.116,-1.704 1.803,-2.453 0.336,-0.364 0.691,-0.712 1.065,-1.04 0.723,-0.634 1.504,-1.185 2.329,-1.647 0.9,-0.502 1.854,-0.901 2.846,-1.185 0.662,-0.191 1.342,-0.33 2.034,-0.418 2.055,-0.26 4.106,0.023 6.14,0.581 z"
         inkscape:connector-curvature="0"
         style="fill:#e3dedb" />
      <path
         id="path4533"
         d="m 52.48,5.389 c 0.101,1.055 -0.672,1.992 -1.726,2.093 -0.557,0.053 -1.077,0.146 -1.564,0.274 -1.074,0.281 -1.987,0.729 -2.762,1.288 -1.274,0.917 -2.177,2.13 -2.819,3.386 -0.563,1.104 -0.924,2.241 -1.156,3.24 -0.065,0.282 -0.12,0.552 -0.167,0.808 -0.243,1.346 -0.222,2.712 -0.067,4.108 0.147,1.339 0.418,2.706 0.696,4.11 0.353,1.779 0.714,3.6 0.839,5.469 0.052,0.753 0.064,1.515 0.023,2.285 -0.093,1.737 -0.406,3.342 -0.919,4.768 -0.38,1.058 -0.873,2.019 -1.466,2.863 -0.514,0.73 -1.104,1.373 -1.766,1.918 -0.036,0.03 -0.073,0.06 -0.11,0.089 -0.424,0.338 -0.874,0.633 -1.347,0.888 -0.917,0.492 -1.923,0.826 -3,0.998 -1.257,0.2 -2.612,0.179 -4.04,-0.069 -0.942,-0.164 -1.894,-0.415 -2.847,-0.72 -0.182,-1.452 -0.457,-2.901 -0.75,-4.336 1.48,0.572 2.901,1.041 4.253,1.275 0.084,0.015 0.167,0.028 0.25,0.04 1.37,0.207 2.578,0.121 3.613,-0.254 0.541,-0.195 1.033,-0.47 1.477,-0.824 0.675,-0.539 1.242,-1.262 1.687,-2.142 0.489,-0.964 0.832,-2.116 1.011,-3.415 0.058,-0.414 0.099,-0.843 0.123,-1.286 0.062,-1.162 -0.032,-2.334 -0.205,-3.531 -0.153,-1.068 -0.369,-2.155 -0.59,-3.271 -0.411,-2.072 -0.83,-4.191 -0.88,-6.372 -0.026,-1.075 0.039,-2.166 0.239,-3.274 0.234,-1.296 0.581,-2.523 1.034,-3.661 0.408,-1.029 0.902,-1.984 1.475,-2.852 0.367,-0.559 0.767,-1.081 1.197,-1.562 0.544,-0.61 1.139,-1.155 1.777,-1.635 0.8,-0.602 1.67,-1.099 2.599,-1.486 1.177,-0.493 2.449,-0.809 3.794,-0.938 1.056,-0.099 1.992,0.674 2.094,1.728 z"
         inkscape:connector-curvature="0"
         style="fill:#e3dedb" />
      <path
         id="path4535"
         d="m 33.827,20.356 c 0.798,0.113 1.576,0.282 2.337,0.49 0.14,1.455 0.393,2.857 0.66,4.227 -1.178,-0.417 -2.345,-0.751 -3.533,-0.919 -3.071,-0.433 -5.651,0.083 -7.259,1.45 -1.309,1.112 -1.998,2.807 -2.047,5.039 -0.049,2.241 0.478,4.783 1.038,7.474 0.902,4.346 1.835,8.841 0.491,12.905 -0.803,2.426 -2.263,4.552 -4.236,6.175 -0.112,0.092 -0.226,0.183 -0.342,0.273 -2.098,1.616 -4.63,2.608 -7.322,2.865 -1.055,0.101 -1.992,-0.672 -2.093,-1.726 -0.101,-1.055 0.672,-1.991 1.726,-2.093 4.021,-0.385 7.406,-3.014 8.625,-6.699 1.021,-3.087 0.194,-7.069 -0.605,-10.92 -0.578,-2.784 -1.176,-5.662 -1.117,-8.339 0.074,-3.328 1.249,-6.053 3.399,-7.879 0.036,-0.031 0.072,-0.061 0.109,-0.091 2.455,-2.019 6.059,-2.812 10.169,-2.232 z"
         inkscape:connector-curvature="0"
         style="fill:#e3dedb" />
      <path
         id="path4537"
         d="m 63.349,19.417 c -0.932,3.128 -2.853,5.63 -5.557,7.234 -2.378,1.41 -5.365,2.13 -8.637,2.081 -1.162,-0.019 -2.279,-0.173 -3.362,-0.418 -0.179,-1.393 -0.446,-2.736 -0.706,-4.049 -0.008,-0.043 -0.017,-0.086 -0.025,-0.128 1.376,0.44 2.747,0.737 4.151,0.759 3.161,0.047 8.724,-0.744 10.46,-6.575 0.303,-1.015 1.371,-1.593 2.386,-1.291 1.014,0.304 1.592,1.372 1.29,2.387 z"
         inkscape:connector-curvature="0"
         style="fill:#e3dedb" />
    </g>
  </g>
</svg>
