<?xml version="1.0" encoding="UTF-8" standalone="no"?>
<!-- Created with Inkscape (http://www.inkscape.org/) -->

<svg
   xmlns:dc="http://purl.org/dc/elements/1.1/"
   xmlns:cc="http://creativecommons.org/ns#"
   xmlns:rdf="http://www.w3.org/1999/02/22-rdf-syntax-ns#"
   xmlns:svg="http://www.w3.org/2000/svg"
   xmlns="http://www.w3.org/2000/svg"
   xmlns:xlink="http://www.w3.org/1999/xlink"
   xmlns:sodipodi="http://sodipodi.sourceforge.net/DTD/sodipodi-0.dtd"
   xmlns:inkscape="http://www.inkscape.org/namespaces/inkscape"
   width="7cm"
   height="5.1487679cm"
   viewBox="0 0 70 51.487677"
   version="1.1"
   id="svg5798"
   inkscape:version="0.92.1 unknown"
   sodipodi:docname="assembly_binning_cycle.svg">
  <defs
     id="defs5792">
    <linearGradient
       inkscape:collect="always"
       xlink:href="#linearGradient4532"
       id="linearGradient4534"
       x1="493.39017"
       y1="295.77023"
       x2="-8.7080517"
       y2="295.77023"
       gradientUnits="userSpaceOnUse"
       gradientTransform="matrix(0.26458333,0,0,0.26458333,3.4101175e-6,28.348215)" />
    <linearGradient
       inkscape:collect="always"
       id="linearGradient4532">
      <stop
         style="stop-color:#dbdbdb;stop-opacity:1"
         offset="0"
         id="stop4528" />
      <stop
         style="stop-color:#c7c7c7;stop-opacity:0"
         offset="1"
         id="stop4530" />
    </linearGradient>
    <linearGradient
       gradientTransform="matrix(-0.26458334,0,0,-0.26458334,205.99674,276.34981)"
       inkscape:collect="always"
       xlink:href="#linearGradient4532"
       id="linearGradient4534-9"
       x1="493.39017"
       y1="295.77023"
       x2="-8.7080517"
       y2="295.77023"
       gradientUnits="userSpaceOnUse" />
  </defs>
  <sodipodi:namedview
     id="base"
     pagecolor="#ffffff"
     bordercolor="#666666"
     borderopacity="1.0"
     inkscape:pageopacity="0.0"
     inkscape:pageshadow="2"
     inkscape:zoom="1.8101934"
     inkscape:cx="93.417166"
     inkscape:cy="51.676137"
     inkscape:document-units="mm"
     inkscape:current-layer="layer1"
     showgrid="false"
     units="cm"
     fit-margin-top="0"
     fit-margin-left="0"
     fit-margin-right="0"
     fit-margin-bottom="0"
     inkscape:window-width="1920"
     inkscape:window-height="994"
     inkscape:window-x="0"
     inkscape:window-y="26"
     inkscape:window-maximized="1"
     showborder="false" />
  <metadata
     id="metadata5795">
    <rdf:RDF>
      <cc:Work
         rdf:about="">
        <dc:format>image/svg+xml</dc:format>
        <dc:type
           rdf:resource="http://purl.org/dc/dcmitype/StillImage" />
        <dc:title></dc:title>
      </cc:Work>
    </rdf:RDF>
  </metadata>
  <g
     inkscape:label="Ebene 1"
     inkscape:groupmode="layer"
     id="layer1"
     transform="translate(-77.783141,-134.85782)">
    <g
       style="display:inline"
       id="g5614"
       transform="matrix(0.38500211,0,0,0.38500211,73.12855,101.94697)">
      <g
         id="g5466">
        <path
           inkscape:connector-curvature="0"
           style="fill:url(#linearGradient4534);fill-opacity:1;stroke:#5b5b5b;stroke-width:0.45770624;stroke-linecap:round;stroke-linejoin:miter;stroke-miterlimit:4;stroke-dasharray:none;stroke-dashoffset:0;stroke-opacity:1"
           d="m 102.99837,85.711122 c -37.88833,5.3e-5 -68.602782,20.307298 -68.602534,45.357438 l -0.0155,1.42937 c -12.903226,3.06564 -22.061775,10.7967 -22.061703,19.85098 -6.8e-5,8.64653 8.351921,16.08665 20.341392,19.40915 l 14.059607,-8.18296 14.060641,8.18348 c 11.989141,-3.32258 20.340946,-10.76327 20.340878,-19.40967 7.1e-5,-9.05269 -9.155388,-16.78268 -22.054984,-19.84943 l -0.02223,-1.43092 c 1.3e-5,-16.04982 19.679078,-29.06076 43.954423,-29.06076 24.27535,0 43.9544,13.01094 43.95442,29.06076 h -4.9506 l 17.27492,10.05417 17.27439,-10.05417 h -4.95008 c 2.5e-4,-25.05027 -30.71451,-45.357573 -68.60305,-45.357438 z"
           id="path4506" />
        <path
           inkscape:connector-curvature="0"
           style="display:inline;fill:url(#linearGradient4534-9);fill-opacity:1;stroke:#5b5b5b;stroke-width:0.45770624;stroke-linecap:round;stroke-linejoin:miter;stroke-miterlimit:4;stroke-dasharray:none;stroke-dashoffset:0;stroke-opacity:1"
           d="m 102.99837,218.9869 c 37.88833,-4e-5 68.60278,-20.3073 68.60254,-45.35742 l 0.0155,-1.42938 c 12.90323,-3.06564 22.06177,-10.79669 22.0617,-19.85097 7e-5,-8.64653 -8.35192,-16.08665 -20.34139,-19.40916 l -14.0596,8.18296 -14.06065,-8.18348 c -11.98914,3.32258 -20.34094,10.76328 -20.34087,19.40968 -8e-5,9.05269 9.15538,16.78268 22.05497,19.84943 l 0.0222,1.43092 c -10e-6,16.04982 -19.67908,29.06075 -43.95442,29.06075 -24.275351,0 -43.954401,-13.01094 -43.954421,-29.06075 h 4.9506 l -17.27491,-10.05417 -17.2744,10.05417 h 4.95008 c -2.4e-4,25.05027 30.71452,45.35758 68.603051,45.35743 z"
           id="path4506-6" />
        <text
           xml:space="preserve"
           style="font-style:normal;font-weight:normal;font-size:10.58333302px;line-height:6.61458302px;font-family:Sans;letter-spacing:0px;word-spacing:0px;fill:#000000;fill-opacity:1;stroke:none;stroke-width:0.26458332px;stroke-linecap:butt;stroke-linejoin:miter;stroke-opacity:1"
           x="46.58757"
           y="155.2677"
           id="text5328"><tspan
             sodipodi:role="line"
             id="tspan5326"
             x="46.58757"
             y="155.2677"
             style="font-style:normal;font-variant:normal;font-weight:bold;font-stretch:normal;font-size:11.28888893px;font-family:'liberation sans';-inkscape-font-specification:'liberation sans Bold';text-align:center;text-anchor:middle;stroke-width:0.26458332px">assembly</tspan></text>
        <text
           xml:space="preserve"
           style="font-style:normal;font-weight:normal;font-size:10.58333302px;line-height:6.61458302px;font-family:Sans;letter-spacing:0px;word-spacing:0px;fill:#000000;fill-opacity:1;stroke:none;stroke-width:0.26458332px;stroke-linecap:butt;stroke-linejoin:miter;stroke-opacity:1"
           x="159.28514"
           y="155.24289"
           id="text5332"><tspan
             sodipodi:role="line"
             id="tspan5330"
             x="159.28514"
             y="155.24289"
             style="font-style:normal;font-variant:normal;font-weight:bold;font-stretch:normal;font-size:11.28888893px;font-family:'liberation sans';-inkscape-font-specification:'liberation sans Bold';text-align:center;text-anchor:middle;stroke-width:0.26458332px">binning</tspan></text>
      </g>
      <g
         aria-label="longer contigs"
         style="font-style:normal;font-weight:normal;font-size:11.28888893px;line-height:6.61458302px;font-family:Sans;letter-spacing:0px;word-spacing:0px;fill:#333333;fill-opacity:1;stroke:none;stroke-width:0.26458332px;stroke-linecap:butt;stroke-linejoin:miter;stroke-opacity:1"
         id="text5344"
         transform="matrix(0.8,0,0,0.8,20.43439,21.636276)">
        <path
           d="m 69.720843,100.71981 -3.65946,-8.603742 c 0.335709,-0.142302 0.672205,-0.282548 1.009464,-0.420738 l 3.551031,8.64697 c -0.301132,0.124 -0.601485,0.24984 -0.901035,0.37751 z"
           style="font-style:normal;font-variant:normal;font-weight:normal;font-stretch:normal;font-family:'liberation sans';-inkscape-font-specification:'liberation sans';text-align:center;text-anchor:middle;fill:#333333;stroke-width:0.26458332px"
           id="path5503"
           inkscape:original-d="m 68.415126,93.591156 v -8.180035 h 0.992187 v 8.180035 z"
           inkscape:connector-curvature="0" />
        <path
           d="m 75.659118,94.87144 c 0.361468,1.134424 0.408033,2.053647 0.156582,2.749315 -0.252326,0.698087 -0.779662,1.182211 -1.58913,1.471468 -0.384662,0.137456 -0.751373,0.195979 -1.10329,0.174792 -0.351783,-0.02118 -0.685267,-0.127908 -1.001747,-0.321117 -0.312941,-0.194439 -0.606874,-0.47439 -0.880862,-0.840437 -0.271936,-0.37113 -0.519344,-0.836091 -0.738698,-1.394647 -0.856533,-2.181044 -0.424208,-3.63947 1.392629,-4.286444 0.467096,-0.166332 0.895116,-0.236446 1.280204,-0.212306 0.38899,0.02289 0.736953,0.139453 1.042834,0.348019 0.30972,0.207441 0.582509,0.504847 0.819564,0.891427 0.237156,0.386744 0.443472,0.859911 0.621914,1.41993 z m -1.017065,0.333489 c -0.167019,-0.501987 -0.340504,-0.903624 -0.522424,-1.205815 -0.178174,-0.303229 -0.369674,-0.528628 -0.574971,-0.676079 -0.201554,-0.148643 -0.414966,-0.226386 -0.639557,-0.232889 -0.225901,-0.01047 -0.464249,0.02857 -0.713917,0.11744 -0.253344,0.09018 -0.467653,0.214542 -0.64217,0.372135 -0.17234,0.152351 -0.292908,0.353598 -0.361311,0.603052 -0.06989,0.245605 -0.08172,0.543654 -0.03584,0.894308 0.0495,0.349496 0.16604,0.764942 0.348619,1.248185 0.186842,0.494531 0.380846,0.890705 0.579805,1.187708 0.197604,0.293261 0.397794,0.511861 0.600278,0.655781 0.206002,0.142687 0.412315,0.22071 0.619659,0.234189 0.210823,0.01223 0.422372,-0.0198 0.635638,-0.09602 0.237349,-0.08483 0.439406,-0.198157 0.60685,-0.340869 0.166028,-0.14664 0.283776,-0.340163 0.353577,-0.581216 0.06977,-0.240959 0.0866,-0.53913 0.05013,-0.89429 -0.03644,-0.354949 -0.137527,-0.784143 -0.304376,-1.28562 z"
           style="font-style:normal;font-variant:normal;font-weight:normal;font-stretch:normal;font-family:'liberation sans';-inkscape-font-specification:'liberation sans';text-align:center;text-anchor:middle;fill:#333333;stroke-width:0.26458332px"
           id="path5505"
           inkscape:original-d="m 75.972287,90.603569 q 0,1.565452 -0.689019,2.331641 -0.689019,0.766189 -2.000911,0.766189 -0.622874,0 -1.113455,-0.187413 -0.490582,-0.187413 -0.832335,-0.573264 -0.336242,-0.385851 -0.518143,-0.964627 -0.176389,-0.584288 -0.176389,-1.372526 0,-3.086805 2.673394,-3.086805 0.694532,0 1.196138,0.192925 0.507118,0.192925 0.826823,0.578776 0.325217,0.385851 0.479557,0.964627 0.15434,0.578776 0.15434,1.350477 z m -1.041797,0 q 0,-0.694531 -0.110243,-1.146528 -0.104731,-0.451996 -0.314193,-0.722092 -0.203949,-0.270095 -0.501605,-0.374826 -0.297657,-0.110243 -0.672483,-0.110243 -0.380339,0 -0.689019,0.115755 -0.303169,0.110243 -0.518143,0.385851 -0.214974,0.270095 -0.330729,0.722092 -0.110243,0.451996 -0.110243,1.129991 0,0.694531 0.121268,1.15204 0.121267,0.451997 0.330729,0.722092 0.214974,0.270096 0.501606,0.380339 0.292144,0.110243 0.633897,0.110243 0.380339,0 0.689019,-0.104731 0.308681,-0.110243 0.523655,-0.380339 0.214974,-0.270095 0.330729,-0.727604 0.115755,-0.457509 0.115755,-1.15204 z"
           inkscape:connector-curvature="0" />
        <path
           d="m 81.458289,96.746976 -1.059196,-4.18644 c -0.08134,-0.321504 -0.171432,-0.584131 -0.270977,-0.788269 -0.09578,-0.205034 -0.208984,-0.359956 -0.339917,-0.46468 -0.131936,-0.108759 -0.285782,-0.168293 -0.461252,-0.178236 -0.172708,-0.01499 -0.377811,0.0094 -0.614451,0.07381 -0.240423,0.06546 -0.445469,0.172357 -0.614317,0.319918 -0.166253,0.142494 -0.293689,0.320503 -0.382124,0.533543 -0.08588,0.20798 -0.129008,0.449749 -0.129751,0.725293 -0.0019,0.271569 0.0448,0.570349 0.139116,0.896988 l 1.094897,3.791781 c -0.313132,0.09142 -0.625694,0.184666 -0.937661,0.279738 L 76.33491,92.622209 c -0.04122,-0.136583 -0.08611,-0.278656 -0.134689,-0.42616 -0.04609,-0.15267 -0.09099,-0.294697 -0.134746,-0.426143 -0.04497,-0.135452 -0.0839,-0.250808 -0.116785,-0.346072 -0.03287,-0.09527 -0.05544,-0.156388 -0.0677,-0.183359 0.319304,-0.09735 0.639129,-0.192935 0.959454,-0.286751 0.0096,0.01905 0.02914,0.07236 0.0586,0.159929 0.02945,0.08757 0.06298,0.189256 0.100595,0.305047 0.04018,0.110672 0.07962,0.22592 0.118362,0.345759 0.03755,0.115791 0.06799,0.214047 0.09131,0.294649 0.0056,-0.0016 0.01116,-0.0033 0.01674,-0.0049 0.04193,-0.217734 0.09911,-0.420039 0.171545,-0.606869 0.07243,-0.186824 0.171195,-0.354765 0.296306,-0.503583 0.123969,-0.152846 0.278623,-0.285597 0.463789,-0.397759 0.18403,-0.11619 0.409229,-0.210407 0.675052,-0.281656 0.341772,-0.09161 0.648383,-0.123897 0.918103,-0.09801 0.269813,0.0259 0.507625,0.113074 0.712904,0.260723 0.205349,0.1477 0.379477,0.361852 0.522962,0.642102 0.146311,0.27534 0.267811,0.616916 0.365935,1.025107 l 1.060856,4.413154 c -0.318902,0.07801 -0.637318,0.15786 -0.955222,0.239549 z"
           style="font-style:normal;font-variant:normal;font-weight:normal;font-stretch:normal;font-family:'liberation sans';-inkscape-font-specification:'liberation sans';text-align:center;text-anchor:middle;fill:#333333;stroke-width:0.26458332px"
           id="path5507"
           inkscape:original-d="m 80.99937,93.591156 v -3.781337 q 0,-0.43546 -0.06615,-0.727604 -0.06063,-0.292144 -0.203949,-0.468533 -0.143316,-0.181901 -0.380339,-0.253559 -0.23151,-0.07717 -0.578776,-0.07717 -0.352778,0 -0.63941,0.126779 -0.281119,0.121268 -0.485069,0.35829 -0.198437,0.231511 -0.308681,0.578776 -0.110243,0.341754 -0.110243,0.788238 v 3.45612 H 77.23457 v -4.690842 q 0,-0.187413 -0.0055,-0.391363 0,-0.209462 -0.0055,-0.391363 -0.0055,-0.187413 -0.01103,-0.319705 -0.0055,-0.132291 -0.01102,-0.170876 h 0.937066 q 0.0055,0.02756 0.01102,0.148828 0.0055,0.121267 0.01103,0.28112 0.01102,0.15434 0.01654,0.319704 0.0055,0.159853 0.0055,0.270096 h 0.01654 q 0.143316,-0.259071 0.314192,-0.468533 0.170877,-0.209462 0.396875,-0.352778 0.225999,-0.148828 0.518143,-0.225998 0.292144,-0.08268 0.677994,-0.08268 0.496094,0 0.854384,0.121267 0.35829,0.121267 0.589801,0.374826 0.23151,0.253559 0.336241,0.655947 0.110243,0.396875 0.110243,0.94809 v 3.974262 z"
           inkscape:connector-curvature="0" />
        <path
           d="m 86.546975,98.330972 c -0.320611,0.06386 -0.612172,0.0832 -0.876198,0.05715 -0.263966,-0.02605 -0.499471,-0.09338 -0.707066,-0.20275 -0.206683,-0.105249 -0.387614,-0.24566 -0.542643,-0.421713 -0.155011,-0.176034 -0.284603,-0.381285 -0.388151,-0.615997 0.304621,-0.125028 0.610325,-0.248387 0.917086,-0.370066 0.12786,0.294485 0.315405,0.501159 0.561602,0.621036 0.250713,0.12335 0.548991,0.149537 0.897343,0.08027 0.212523,-0.04226 0.399306,-0.114936 0.560954,-0.218575 0.161617,-0.103619 0.289622,-0.245141 0.384237,-0.425001 0.09533,-0.175687 0.154847,-0.393671 0.178264,-0.653957 0.02341,-0.260196 0.0044,-0.568419 -0.05804,-0.923912 l -0.189442,-1.079218 c -0.0036,6.57e-4 -0.0072,0.0013 -0.01088,0.002 -0.04275,0.182691 -0.104271,0.362479 -0.184265,0.539474 -0.07713,0.1722 -0.181829,0.332608 -0.313867,0.481511 -0.128464,0.148237 -0.28543,0.278767 -0.470961,0.392082 -0.186341,0.109209 -0.407143,0.189503 -0.663085,0.241759 -0.366115,0.07475 -0.694204,0.07136 -0.986757,-0.01151 -0.289733,-0.08771 -0.549369,-0.253795 -0.779411,-0.499051 -0.226379,-0.24596 -0.426617,-0.568659 -0.599647,-0.968146 -0.170275,-0.404275 -0.31871,-0.883123 -0.44314,-1.435645 -0.119915,-0.532474 -0.189041,-1.020072 -0.205738,-1.464201 -0.01295,-0.444883 0.03875,-0.835236 0.156309,-1.171332 0.120415,-0.340925 0.31175,-0.621819 0.573972,-0.841488 0.265071,-0.224503 0.612371,-0.381574 1.039844,-0.468303 0.442918,-0.08986 0.848009,-0.05523 1.211341,0.102225 0.366613,0.152676 0.672736,0.414464 0.918518,0.783791 0.0038,-6.91e-4 0.0076,-0.0014 0.01143,-0.0021 -0.01813,-0.103362 -0.03654,-0.219514 -0.0552,-0.34838 -0.01483,-0.129584 -0.03007,-0.250524 -0.04578,-0.362882 -0.0126,-0.117177 -0.02226,-0.217818 -0.02901,-0.30192 -0.0068,-0.0841 -0.0073,-0.133054 -0.0018,-0.146855 0.330189,-0.05958 0.660688,-0.117383 0.991477,-0.173415 0.0022,0.03795 0.0089,0.102826 0.01989,0.194637 0.01037,0.08767 0.02379,0.193977 0.04027,0.318932 0.01649,0.124952 0.03536,0.264406 0.05662,0.418358 0.02441,0.149159 0.04985,0.304532 0.0763,0.46612 l 0.841313,5.13975 c 0.153842,0.939851 0.06948,1.681281 -0.240438,2.221137 -0.306635,0.544985 -0.852943,0.888382 -1.645269,1.046189 -3e-6,0 -5e-6,0 -7e-6,0 z m 0.367778,-6.261546 c -0.08205,-0.46742 -0.198555,-0.857677 -0.35143,-1.171323 -0.149779,-0.318343 -0.319676,-0.568677 -0.509956,-0.75095 -0.19023,-0.182226 -0.394151,-0.303811 -0.611176,-0.364523 -0.213178,-0.06144 -0.423328,-0.07151 -0.629462,-0.03028 -0.263398,0.05268 -0.480621,0.148673 -0.650846,0.28693 -0.16647,0.137508 -0.289954,0.326637 -0.370228,0.566937 -0.07737,0.235458 -0.110627,0.525891 -0.100169,0.871551 0.01334,0.340866 0.0693,0.740682 0.167055,1.200696 0.102029,0.480144 0.215699,0.878973 0.339675,1.195466 0.126801,0.311748 0.269082,0.55601 0.426387,0.732681 0.157357,0.176733 0.332606,0.289836 0.526133,0.339622 0.193592,0.0498 0.412033,0.04995 0.656362,10e-4 0.194026,-0.03884 0.373586,-0.123325 0.539585,-0.253751 0.169577,-0.131101 0.309727,-0.313645 0.420967,-0.548009 0.11121,-0.2343 0.183824,-0.523117 0.217585,-0.866384 0.03374,-0.343124 0.01078,-0.746764 -0.07048,-1.209699 z"
           style="font-style:normal;font-variant:normal;font-weight:normal;font-stretch:normal;font-family:'liberation sans';-inkscape-font-specification:'liberation sans';text-align:center;text-anchor:middle;fill:#333333;stroke-width:0.26458332px"
           id="path5509"
           inkscape:original-d="m 85.756357,95.933821 q -0.51263,0 -0.909505,-0.104731 -0.396875,-0.104731 -0.677995,-0.303168 -0.281119,-0.192926 -0.457508,-0.463021 -0.176389,-0.270096 -0.253559,-0.600825 l 0.997699,-0.143316 q 0.09922,0.413412 0.43546,0.633898 0.341754,0.225998 0.892969,0.225998 0.336242,0 0.611849,-0.09371 0.275608,-0.09371 0.468533,-0.303168 0.192926,-0.20395 0.297656,-0.534679 0.104731,-0.330729 0.104731,-0.804774 V 92.48321 h -0.01102 q -0.110243,0.225999 -0.275608,0.43546 -0.159852,0.20395 -0.396875,0.363802 -0.23151,0.159853 -0.540191,0.259072 -0.30868,0.09371 -0.705555,0.09371 -0.567752,0 -0.975651,-0.187413 -0.402387,-0.192925 -0.661459,-0.573264 -0.253559,-0.380338 -0.374826,-0.942578 -0.115755,-0.567752 -0.115755,-1.311892 0,-0.71658 0.115755,-1.289844 0.121267,-0.573264 0.385851,-0.970139 0.270095,-0.402387 0.694531,-0.611849 0.429948,-0.214974 1.041797,-0.214974 0.633897,0 1.096918,0.292144 0.468533,0.286632 0.722092,0.821311 h 0.01102 q 0,-0.137804 0.0055,-0.308681 0.01102,-0.170876 0.01654,-0.319704 0.01102,-0.154341 0.02205,-0.264584 0.01102,-0.110243 0.02205,-0.126779 h 0.942579 q -0.0055,0.04961 -0.01102,0.170876 -0.0055,0.115756 -0.01102,0.28112 -0.0055,0.165365 -0.01102,0.369314 0,0.198438 0,0.413412 v 4.55855 q 0,1.251259 -0.617361,1.879644 -0.611849,0.633898 -1.879645,0.633898 z m 1.51033,-5.32474 q 0,-0.622873 -0.137803,-1.063845 -0.132292,-0.446485 -0.352778,-0.727604 -0.220486,-0.28112 -0.507118,-0.413412 -0.28112,-0.132291 -0.578776,-0.132291 -0.380339,0 -0.655947,0.132291 -0.270095,0.132292 -0.451996,0.418924 -0.176389,0.28112 -0.264583,0.727604 -0.08268,0.440972 -0.08268,1.058333 0,0.644922 0.08268,1.085894 0.08819,0.435461 0.264583,0.705556 0.176389,0.270095 0.446484,0.385851 0.270096,0.115755 0.644922,0.115755 0.297656,0 0.578776,-0.12678 0.286632,-0.126779 0.51263,-0.402387 0.225999,-0.275607 0.363803,-0.711067 0.137803,-0.435461 0.137803,-1.052822 z"
           inkscape:connector-curvature="0" />
        <path
           d="m 90.26984,91.76755 c 0.04827,0.353576 0.12456,0.675749 0.227819,0.966359 0.106391,0.285949 0.239987,0.527944 0.400194,0.726092 0.163351,0.193519 0.356279,0.336631 0.578924,0.429866 0.222187,0.0891 0.47802,0.115095 0.76895,0.07893 0.425447,-0.05289 0.75468,-0.1902 0.98997,-0.415385 0.238799,-0.22546 0.390238,-0.492982 0.45272,-0.803732 0.300678,0.06298 0.60057,0.127469 0.899662,0.193456 -0.04587,0.194331 -0.116893,0.393218 -0.212549,0.596924 -0.09238,0.199154 -0.22393,0.385511 -0.394135,0.55959 -0.17064,0.169931 -0.389797,0.320121 -0.657412,0.451747 -0.26452,0.127079 -0.590512,0.213673 -0.979464,0.262032 -0.863478,0.107356 -1.55826,-0.09622 -2.099245,-0.623792 -0.535636,-0.526412 -0.899558,-1.374653 -1.073706,-2.544687 -0.094,-0.631571 -0.102256,-1.175695 -0.02144,-1.634401 0.08015,-0.462577 0.227955,-0.849954 0.44412,-1.16175 0.216083,-0.31168 0.487798,-0.551909 0.814053,-0.719351 0.32565,-0.171572 0.684386,-0.28219 1.074219,-0.330753 0.530172,-0.06605 0.983721,-0.02496 1.356724,0.119726 0.377104,0.144341 0.68721,0.369781 0.93019,0.674449 0.246539,0.300202 0.432261,0.666019 0.558912,1.096921 0.130484,0.430583 0.216839,0.901003 0.261191,1.411586 l 0.01309,0.150632 c -1.448079,0.137431 -2.892955,0.309232 -4.332779,0.51554 z m 3.201272,-1.275365 c -0.127379,-0.708984 -0.344939,-1.211005 -0.656364,-1.50624 -0.311326,-0.298905 -0.7302,-0.41811 -1.251918,-0.353008 -0.173821,0.02169 -0.353586,0.07635 -0.538653,0.164076 -0.18174,0.08306 -0.343566,0.21279 -0.484863,0.388893 -0.141326,0.176138 -0.24941,0.405273 -0.324172,0.687241 -0.07536,0.277935 -0.09212,0.621547 -0.05157,1.031567 1.099907,-0.157447 2.202686,-0.294937 3.307537,-0.412529 z"
           style="font-style:normal;font-variant:normal;font-weight:normal;font-stretch:normal;font-family:'liberation sans';-inkscape-font-specification:'liberation sans';text-align:center;text-anchor:middle;fill:#333333;stroke-width:0.26458332px"
           id="path5511"
           inkscape:original-d="m 90.540907,90.818543 q 0,0.468533 0.09371,0.865408 0.09922,0.391363 0.297656,0.677995 0.20395,0.28112 0.518143,0.440972 0.314192,0.15434 0.755164,0.15434 0.644922,0 1.030773,-0.259071 0.391363,-0.259071 0.529167,-0.655946 l 0.87092,0.248047 q -0.09371,0.248047 -0.264583,0.501606 -0.165365,0.248047 -0.446485,0.451996 -0.28112,0.198438 -0.705555,0.33073 -0.418924,0.126779 -1.014237,0.126779 -1.322916,0 -2.017447,-0.788238 -0.68902,-0.788238 -0.68902,-2.342665 0,-0.837847 0.209462,-1.416623 0.209462,-0.584288 0.573264,-0.94809 0.363802,-0.363802 0.848872,-0.523655 0.485069,-0.165364 1.036284,-0.165364 0.749653,0 1.251259,0.242534 0.507118,0.242535 0.810287,0.672483 0.30868,0.424436 0.43546,1.003212 0.132291,0.578776 0.132291,1.251258 v 0.132292 z m 3.230122,-0.760677 q -0.08268,-0.942578 -0.479557,-1.372526 -0.396875,-0.43546 -1.141016,-0.43546 -0.248047,0 -0.523655,0.08268 -0.270095,0.07717 -0.501605,0.28112 -0.231511,0.20395 -0.391363,0.556727 -0.159853,0.347266 -0.181901,0.887457 z"
           inkscape:connector-curvature="0" />
        <path
           d="m 96.147804,94.297333 -0.375533,-5.215671 c -0.01026,-0.142434 -0.02258,-0.286815 -0.037,-0.433128 -0.01087,-0.150821 -0.02321,-0.295182 -0.03705,-0.433124 -0.01384,-0.137934 -0.0271,-0.267487 -0.03978,-0.388661 -0.01266,-0.121175 -0.02444,-0.229779 -0.03533,-0.325815 0.332254,-0.02677 0.664632,-0.0518 0.997114,-0.07509 0.0098,0.09615 0.02059,0.206971 0.03223,0.332467 0.01527,0.121036 0.02882,0.246391 0.04067,0.376087 0.01574,0.129417 0.0273,0.254928 0.03474,0.376503 0.01104,0.117102 0.01911,0.217618 0.02424,0.30145 0.0077,-5.37e-4 0.01542,-0.0011 0.02312,-0.0016 0.0574,-0.26503 0.121436,-0.494601 0.191959,-0.68876 0.07416,-0.198611 0.164522,-0.362366 0.271008,-0.491216 0.106243,-0.133029 0.236277,-0.2337 0.389912,-0.301743 0.153389,-0.07222 0.342065,-0.114628 0.565507,-0.126574 0.08624,-0.0046 0.168942,-5.02e-4 0.248036,0.0123 0.0789,0.0086 0.140189,0.0182 0.183774,0.02867 l 0.04163,1.038745 c -0.07058,-0.01756 -0.152594,-0.02818 -0.245975,-0.03176 -0.09356,-0.0078 -0.198531,-0.0085 -0.314816,-0.0021 -0.240355,0.01321 -0.442979,0.08415 -0.60695,0.212049 -0.160143,0.127695 -0.288079,0.300076 -0.383774,0.516858 -0.09211,0.212376 -0.154091,0.464872 -0.186388,0.757612 -0.03255,0.288566 -0.03818,0.602499 -0.01759,0.942154 l 0.214988,3.546891 c -0.326377,0.02271 -0.652629,0.04722 -0.978731,0.07352 z"
           style="font-style:normal;font-variant:normal;font-weight:normal;font-stretch:normal;font-family:'liberation sans';-inkscape-font-specification:'liberation sans';text-align:center;text-anchor:middle;fill:#333333;stroke-width:0.26458332px"
           id="path5513"
           inkscape:original-d="m 96.086132,93.591156 v -4.575087 q 0,-0.187413 -0.0055,-0.380338 0,-0.198438 -0.0055,-0.380339 -0.0055,-0.181901 -0.01102,-0.341753 -0.0055,-0.159853 -0.01102,-0.286632 h 0.937066 q 0.0055,0.126779 0.01102,0.292144 0.01102,0.159852 0.01654,0.330729 0.01103,0.170877 0.01103,0.330729 0.0055,0.15434 0.0055,0.264583 h 0.02205 q 0.104731,-0.341753 0.220486,-0.5898 0.121268,-0.253559 0.28112,-0.413411 0.159853,-0.165365 0.380339,-0.242535 0.220486,-0.08268 0.534679,-0.08268 0.121267,0 0.23151,0.02205 0.110243,0.01654 0.170877,0.03307 v 0.909505 q -0.09922,-0.02756 -0.231511,-0.03858 -0.132291,-0.01654 -0.297656,-0.01654 -0.341753,0 -0.584288,0.15434 -0.237023,0.15434 -0.391363,0.429948 -0.148828,0.270096 -0.220486,0.650434 -0.07166,0.374826 -0.07166,0.821311 v 3.108854 z"
           inkscape:connector-curvature="0" />
        <path
           d="m 103.74223,90.583953 c -0.005,0.390506 0.014,0.750324 0.0577,1.079048 0.0475,0.328842 0.12872,0.614623 0.24307,0.857229 0.11446,0.238455 0.26603,0.425673 0.45468,0.562022 0.19239,0.136509 0.42952,0.209838 0.71249,0.220978 0.35276,0.01389 0.65013,-0.0819 0.89441,-0.288867 0.24774,-0.206611 0.41011,-0.534785 0.4853,-0.984999 0.33772,0.04289 0.67508,0.08744 1.01207,0.133676 -0.0484,0.278937 -0.13492,0.545 -0.25877,0.798415 -0.12385,0.253415 -0.2858,0.473194 -0.48535,0.659763 -0.19592,0.186803 -0.43109,0.334049 -0.70568,0.442549 -0.27448,0.104323 -0.58755,0.148901 -0.94081,0.13486 -0.4625,-0.01838 -0.85345,-0.121176 -1.17554,-0.310949 -0.32196,-0.189693 -0.58455,-0.443509 -0.78776,-0.762668 -0.10149,-0.164474 -0.18908,-0.342671 -0.26262,-0.534641 -0.0708,-0.183779 -0.12868,-0.380754 -0.17333,-0.590912 -0.0908,-0.431918 -0.1365,-0.900088 -0.13489,-1.403977 0.001,-0.457946 0.0368,-0.861108 0.10718,-1.210267 0.0576,-0.288892 0.13346,-0.546828 0.22795,-0.773904 0,0 0,0 0,0 0,0 0,0 0,0 0,0 0,0 0,0 0,0 0,0 0,0 0.021,-0.05016 0.0429,-0.09876 0.0657,-0.145808 0.12912,-0.262391 0.28007,-0.480031 0.45278,-0.652775 0.17274,-0.176924 0.35949,-0.315333 0.55988,-0.415044 0.20434,-0.103801 0.41851,-0.175263 0.64203,-0.214218 0.22362,-0.04316 0.44893,-0.06035 0.67545,-0.05156 0.35541,0.0138 0.67016,0.08033 0.94293,0.198472 0.27281,0.118163 0.50416,0.275352 0.69377,0.470774 0.1937,0.191465 0.34589,0.414828 0.45692,0.669661 0.11103,0.254849 0.18352,0.526483 0.21824,0.8148 -0.35552,0.0075 -0.71082,0.01682 -1.06587,0.02796 -0.0376,-0.38052 -0.16142,-0.687514 -0.37297,-0.920548 -0.21143,-0.232867 -0.52148,-0.35852 -0.92817,-0.374238 -0.29819,-0.01152 -0.54951,0.03465 -0.75292,0.137455 -0.19953,0.09877 -0.36284,0.25588 -0.48978,0.470922 -0.1269,0.210898 -0.21924,0.479457 -0.27753,0.805766 -0.0545,0.326484 -0.0844,0.709914 -0.0906,1.151019 0,1e-6 1e-5,1e-6 2e-5,2e-6 z"
           style="font-style:normal;font-variant:normal;font-weight:normal;font-stretch:normal;font-family:'liberation sans';-inkscape-font-specification:'liberation sans';text-align:center;text-anchor:middle;fill:#333333;stroke-width:0.26458332px"
           id="path5515"
           inkscape:original-d="m 103.72047,90.581521 q 0,0.51263 0.0716,0.942578 0.0772,0.429948 0.25356,0.74414 0.17639,0.308681 0.46302,0.479558 0.29215,0.170876 0.71658,0.170876 0.52917,0 0.88195,-0.286632 0.35829,-0.286632 0.44097,-0.881944 l 1.00321,0.06615 q -0.0496,0.369314 -0.21497,0.711068 -0.16537,0.341753 -0.452,0.600824 -0.28112,0.259071 -0.68902,0.418924 -0.4079,0.15434 -0.94258,0.15434 -0.70004,0 -1.19062,-0.237023 -0.49058,-0.237022 -0.79926,-0.650434 -0.30317,-0.418923 -0.44098,-0.981163 -0.1378,-0.567751 -0.1378,-1.22921 0,-0.600824 0.0992,-1.058333 0.0992,-0.463021 0.27561,-0.804774 0.1819,-0.347266 0.42443,-0.578777 0.24254,-0.237022 0.52366,-0.374826 0.28663,-0.143316 0.60082,-0.20395 0.31419,-0.06615 0.6339,-0.06615 0.50161,0 0.89297,0.137803 0.39136,0.137804 0.67248,0.380339 0.28663,0.237023 0.46302,0.56224 0.17639,0.325217 0.24805,0.700043 l -1.01975,0.07717 q -0.0772,-0.496094 -0.39136,-0.788238 -0.3142,-0.292144 -0.89297,-0.292144 -0.42444,0 -0.71107,0.143316 -0.28112,0.137804 -0.45751,0.424436 -0.17639,0.28112 -0.25356,0.711068 -0.0716,0.429948 -0.0716,1.008724 z"
           inkscape:connector-curvature="0" />
        <path
           d="m 113.91978,91.36115 c -0.13913,1.182997 -0.47615,2.037425 -0.99469,2.562574 -0.52011,0.526758 -1.2045,0.742455 -2.06626,0.659034 -0.40947,-0.03964 -0.76954,-0.143618 -1.08229,-0.313667 -0.31264,-0.169994 -0.57226,-0.40982 -0.77945,-0.720629 -0.20346,-0.310422 -0.353,-0.68999 -0.44768,-1.138828 -0.0907,-0.452586 -0.11901,-0.979201 -0.0824,-1.578474 0.14288,-2.340744 1.14584,-3.470133 3.05163,-3.28479 0.49084,0.04774 0.90663,0.16551 1.24501,0.350438 0.34241,0.18543 0.60934,0.438266 0.80052,0.75682 0.1951,0.319137 0.31999,0.704342 0.37588,1.155453 0.0559,0.451278 0.0484,0.968148 -0.0202,1.552069 z m -1.06323,-0.126996 c 0.056,-0.526281 0.0645,-0.964317 0.0244,-1.315551 -0.0363,-0.350619 -0.11674,-0.636256 -0.24178,-0.857001 -0.12115,-0.220252 -0.28224,-0.381215 -0.48284,-0.482382 -0.20016,-0.105324 -0.43198,-0.171112 -0.69469,-0.196703 -0.26657,-0.02597 -0.512,-0.0045 -0.73538,0.06384 -0.21922,0.06455 -0.41208,0.195343 -0.57806,0.391983 -0.16571,0.19251 -0.30101,0.457265 -0.40623,0.79426 -0.10144,0.337465 -0.16999,0.763405 -0.20705,1.278873 -0.0379,0.527596 -0.0281,0.969132 0.0282,1.323226 0.0566,0.350089 0.14707,0.633703 0.27123,0.850727 0.12787,0.2174 0.28337,0.376371 0.46698,0.477254 0.18732,0.101232 0.39395,0.162609 0.62062,0.184528 0.25226,0.02439 0.48418,0.0077 0.69663,-0.05044 0.21281,-0.06233 0.40094,-0.18782 0.56491,-0.376858 0.16393,-0.188974 0.30313,-0.452366 0.41728,-0.790113 0.1141,-0.337569 0.19989,-0.769837 0.25581,-1.29565 z"
           style="font-style:normal;font-variant:normal;font-weight:normal;font-stretch:normal;font-family:'liberation sans';-inkscape-font-specification:'liberation sans';text-align:center;text-anchor:middle;fill:#333333;stroke-width:0.26458332px"
           id="path5517"
           inkscape:original-d="m 113.65336,90.603569 q 0,1.565452 -0.68902,2.331641 -0.68901,0.766189 -2.00091,0.766189 -0.62287,0 -1.11345,-0.187413 -0.49058,-0.187413 -0.83234,-0.573264 -0.33624,-0.385851 -0.51814,-0.964627 -0.17639,-0.584288 -0.17639,-1.372526 0,-3.086805 2.6734,-3.086805 0.69453,0 1.19613,0.192925 0.50712,0.192925 0.82683,0.578776 0.32521,0.385851 0.47955,0.964627 0.15434,0.578776 0.15434,1.350477 z m -1.04179,0 q 0,-0.694531 -0.11025,-1.146528 -0.10473,-0.451996 -0.31419,-0.722092 -0.20395,-0.270095 -0.5016,-0.374826 -0.29766,-0.110243 -0.67249,-0.110243 -0.38034,0 -0.68902,0.115755 -0.30317,0.110243 -0.51814,0.385851 -0.21497,0.270095 -0.33073,0.722092 -0.11024,0.451996 -0.11024,1.129991 0,0.694531 0.12127,1.15204 0.12126,0.451997 0.33073,0.722092 0.21497,0.270096 0.5016,0.380339 0.29215,0.110243 0.6339,0.110243 0.38034,0 0.68902,-0.104731 0.30868,-0.110243 0.52365,-0.380339 0.21498,-0.270095 0.33073,-0.727604 0.11576,-0.457509 0.11576,-1.15204 z"
           inkscape:connector-curvature="0" />
        <path
           d="m 118.44264,95.497103 0.73838,-4.252995 c 0.0567,-0.326608 0.0815,-0.60326 0.074,-0.830564 -0.004,-0.226558 -0.0437,-0.414749 -0.12022,-0.564615 -0.0757,-0.153959 -0.19141,-0.272225 -0.34686,-0.354382 -0.15089,-0.08561 -0.34721,-0.148891 -0.5885,-0.18896 -0.24513,-0.04071 -0.47499,-0.02902 -0.68861,0.03472 -0.20919,0.06021 -0.39765,0.168903 -0.56506,0.325734 -0.16302,0.153294 -0.30109,0.355181 -0.41451,0.605513 -0.11283,0.246228 -0.19269,0.537565 -0.24061,0.874171 l -0.55631,3.907569 c -0.32399,-0.0482 -0.6483,-0.09471 -0.9729,-0.139546 l 0.69803,-5.31215 c 0.0186,-0.141483 0.0359,-0.289519 0.052,-0.444067 0.0208,-0.158149 0.0381,-0.306151 0.0519,-0.444074 0.0144,-0.142054 0.0264,-0.263314 0.0359,-0.363659 0.009,-0.100459 0.0135,-0.165504 0.0138,-0.19512 0.32935,0.04552 0.6585,0.09267 0.98742,0.141449 0.001,0.0214 -0.003,0.07807 -0.0122,0.170009 -0.009,0.09204 -0.0199,0.198568 -0.0334,0.319593 -0.009,0.117492 -0.0201,0.238839 -0.034,0.364065 -0.0129,0.121102 -0.0253,0.223247 -0.0371,0.306331 0.006,8.51e-4 0.0114,0.0017 0.0172,0.0026 0.12715,-0.180492 0.26178,-0.340593 0.40387,-0.480261 0.1421,-0.139662 0.30033,-0.25116 0.47463,-0.33429 0.17491,-0.08727 0.36943,-0.14348 0.58323,-0.168279 0.21442,-0.02894 0.45724,-0.02076 0.72763,0.02516 0.34764,0.05904 0.63926,0.157262 0.87382,0.293059 0.23463,0.13584 0.41538,0.3141 0.54207,0.533896 0.12673,0.219868 0.19819,0.487271 0.21499,0.802142 0.0214,0.311566 -0.007,0.673179 -0.083,1.085737 l -0.82558,4.460447 c -0.32292,-0.06147 -0.64624,-0.121195 -0.96993,-0.179191 z"
           style="font-style:normal;font-variant:normal;font-weight:normal;font-stretch:normal;font-family:'liberation sans';-inkscape-font-specification:'liberation sans';text-align:center;text-anchor:middle;fill:#333333;stroke-width:0.26458332px"
           id="path5519"
           inkscape:original-d="m 118.68044,93.591156 v -3.781337 q 0,-0.43546 -0.0661,-0.727604 -0.0606,-0.292144 -0.20395,-0.468533 -0.14332,-0.181901 -0.38034,-0.253559 -0.23151,-0.07717 -0.57878,-0.07717 -0.35277,0 -0.63941,0.126779 -0.28112,0.121268 -0.48506,0.35829 -0.19844,0.231511 -0.30869,0.578776 -0.11024,0.341754 -0.11024,0.788238 v 3.45612 h -0.99219 v -4.690842 q 0,-0.187413 -0.006,-0.391363 0,-0.209462 -0.006,-0.391363 -0.006,-0.187413 -0.011,-0.319705 -0.006,-0.132291 -0.011,-0.170876 h 0.93707 q 0.006,0.02756 0.011,0.148828 0.006,0.121267 0.011,0.28112 0.011,0.15434 0.0165,0.319704 0.006,0.159853 0.006,0.270096 h 0.0165 q 0.14332,-0.259071 0.31419,-0.468533 0.17088,-0.209462 0.39688,-0.352778 0.226,-0.148828 0.51814,-0.225998 0.29214,-0.08268 0.678,-0.08268 0.49609,0 0.85438,0.121267 0.35829,0.121267 0.5898,0.374826 0.23151,0.253559 0.33624,0.655947 0.11024,0.396875 0.11024,0.94809 v 3.974262 z"
           inkscape:connector-curvature="0" />
        <path
           d="m 123.09001,96.404737 c -0.15526,0.01099 -0.31158,0.01137 -0.46911,0.0011 -0.15494,-0.0053 -0.33128,-0.03023 -0.5295,-0.07431 -0.76116,-0.169281 -1.04633,-0.749586 -0.84094,-1.75756 l 0.90677,-4.450082 c -0.2374,-0.04962 -0.47499,-0.09834 -0.71275,-0.146167 l 0.15825,-0.808753 c 0.25328,0.05096 0.50637,0.102931 0.75926,0.155915 0.20307,-0.475872 0.40774,-0.951226 0.61403,-1.426053 0.23348,0.04972 0.4668,0.1003 0.69995,0.151734 l -0.3207,1.48788 c 0.38236,0.08432 0.76424,0.170972 1.1456,0.259979 l -0.18373,0.803073 c -0.37798,-0.0882 -0.75647,-0.174074 -1.13546,-0.257629 l -0.9051,4.199263 c -0.0689,0.31962 -0.0724,0.555151 -0.0113,0.706016 0.0656,0.147733 0.2108,0.246526 0.43577,0.297706 0.0929,0.02113 0.18394,0.0334 0.27332,0.03682 0.093,0.0042 0.19396,0.0062 0.30313,0.0059 z"
           style="font-style:normal;font-variant:normal;font-weight:normal;font-stretch:normal;font-family:'liberation sans';-inkscape-font-specification:'liberation sans';text-align:center;text-anchor:middle;fill:#333333;stroke-width:0.26458332px"
           id="path5521"
           inkscape:original-d="m 123.47051,93.547059 q -0.226,0.06063 -0.46302,0.09371 -0.23151,0.03858 -0.5402,0.03858 -1.19062,0 -1.19062,-1.350477 v -3.979774 h -0.68902 v -0.722092 h 0.7276 l 0.29215,-1.333941 h 0.66146 v 1.333941 h 1.10243 v 0.722092 h -1.10243 v 3.7648 q 0,0.429948 0.1378,0.606337 0.14332,0.170877 0.49058,0.170877 0.14332,0 0.27561,-0.02205 0.1378,-0.02205 0.29766,-0.05512 z"
           inkscape:connector-curvature="0" />
        <path
           d="m 125.8042,88.622829 0.25254,-1.051676 c 0.35183,0.08602 0.70325,0.174003 1.05423,0.263967 l -0.26463,1.048621 c -0.34694,-0.08892 -0.69433,-0.175889 -1.04214,-0.260912 z m -1.92632,8.02208 1.58863,-6.61577 c 0.34243,0.08369 0.68442,0.169297 1.02596,0.256826 l -1.66471,6.596551 c -0.31611,-0.08098 -0.63274,-0.160175 -0.94988,-0.237607 z"
           style="font-style:normal;font-variant:normal;font-weight:normal;font-stretch:normal;font-family:'liberation sans';-inkscape-font-specification:'liberation sans';text-align:center;text-anchor:middle;fill:#333333;stroke-width:0.26458332px"
           id="path5523"
           inkscape:original-d="m 124.30284,86.359212 v -0.948091 h 0.99219 v 0.948091 z m 0,7.231944 v -5.964149 h 0.99219 v 5.964149 z"
           inkscape:connector-curvature="0" />
        <path
           d="m 127.65401,100.44694 c -0.31172,-0.0947 -0.57743,-0.21502 -0.79796,-0.36243 -0.22048,-0.147367 -0.39687,-0.317763 -0.52922,-0.512131 -0.13345,-0.190298 -0.22796,-0.399497 -0.28311,-0.627962 -0.0551,-0.228439 -0.0743,-0.470683 -0.0569,-0.726668 0.32674,0.03319 0.65354,0.06833 0.98036,0.105454 -0.0238,0.320204 0.0458,0.591001 0.20716,0.812835 0.16374,0.22702 0.41433,0.390675 0.75306,0.493697 0.20664,0.06285 0.40466,0.08673 0.5949,0.07145 0.19019,-0.01528 0.36837,-0.07985 0.53497,-0.193999 0.16529,-0.11012 0.31872,-0.274464 0.46004,-0.493161 0.14127,-0.218616 0.26752,-0.499662 0.37756,-0.842864 l 0.33406,-1.041921 c -0.003,-0.0011 -0.007,-0.0023 -0.0105,-0.0034 -0.12241,0.141085 -0.25998,0.270759 -0.4125,0.38926 -0.14777,0.115621 -0.31433,0.207841 -0.49961,0.277027 -0.18183,0.07028 -0.38054,0.111508 -0.59644,0.124088 -0.21472,0.0086 -0.4464,-0.0246 -0.69612,-0.09908 -0.35721,-0.106532 -0.64484,-0.2641 -0.86439,-0.475097 -0.21481,-0.213934 -0.36684,-0.482877 -0.4561,-0.80777 -0.0857,-0.32379 -0.11276,-0.702989 -0.0802,-1.137163 0.0372,-0.437106 0.1282,-0.929729 0.27456,-1.476092 0.14105,-0.52653 0.30611,-0.989522 0.49726,-1.389438 0.1948,-0.398818 0.42135,-0.719052 0.68085,-0.96036 0.26426,-0.244228 0.56326,-0.402062 0.89646,-0.472446 0.33795,-0.07331 0.71725,-0.04835 1.13472,0.07653 0.43256,0.129392 0.77405,0.350916 1.02163,0.661218 0.25271,0.307641 0.40131,0.683094 0.44663,1.125034 0.004,0.0012 0.007,0.0024 0.011,0.0036 0.032,-0.09978 0.0699,-0.210936 0.1136,-0.333369 0.0471,-0.121373 0.0898,-0.235315 0.1281,-0.3419 0.0433,-0.109371 0.0815,-0.202753 0.11469,-0.280152 0.0331,-0.07742 0.0553,-0.120908 0.0666,-0.130471 0.31914,0.103209 0.63777,0.2082 0.95586,0.314981 -0.016,0.03443 -0.0403,0.09481 -0.0729,0.181168 -0.032,0.08216 -0.0695,0.182308 -0.11275,0.300487 -0.0439,0.117957 -0.0921,0.249929 -0.14454,0.395959 -0.0478,0.143166 -0.0976,0.292298 -0.1494,0.447395 l -1.64742,4.933268 c -0.30123,0.902037 -0.71966,1.516656 -1.24219,1.846853 -0.52213,0.33635 -1.16105,0.38182 -1.93134,0.14774 -1.6e-4,-5e-5 -3.3e-4,-10e-5 -4.9e-4,-1.5e-4 z m 3.22769,-5.353636 c 0.14468,-0.451275 0.22317,-0.850675 0.23398,-1.199635 0.0157,-0.351637 -0.0179,-0.652723 -0.10117,-0.903346 -0.0832,-0.250556 -0.20673,-0.45403 -0.37005,-0.609933 -0.15958,-0.154731 -0.34035,-0.262676 -0.54136,-0.323433 -0.25684,-0.07763 -0.49303,-0.09525 -0.70732,-0.0534 -0.21063,0.04295 -0.40726,0.151734 -0.58948,0.326044 -0.17742,0.171402 -0.34139,0.412121 -0.4924,0.722186 -0.14626,0.307185 -0.28223,0.686492 -0.40924,1.138628 -0.13258,0.471922 -0.21718,0.877547 -0.25453,1.215348 -0.0327,0.334943 -0.0204,0.6176 0.0364,0.847671 0.0568,0.230152 0.15891,0.412563 0.30642,0.547697 0.14755,0.135181 0.33999,0.238236 0.57792,0.310205 0.18895,0.05715 0.38628,0.0672 0.59296,0.03032 0.21014,-0.03579 0.41821,-0.130846 0.62488,-0.285261 0.20662,-0.15437 0.40457,-0.375056 0.5936,-0.662115 0.18896,-0.286931 0.3561,-0.654048 0.4994,-1.100975 z"
           style="font-style:normal;font-variant:normal;font-weight:normal;font-stretch:normal;font-family:'liberation sans';-inkscape-font-specification:'liberation sans';text-align:center;text-anchor:middle;fill:#333333;stroke-width:0.26458332px"
           id="path5525"
           inkscape:original-d="m 129.08188,95.933821 q -0.51263,0 -0.90951,-0.104731 -0.39687,-0.104731 -0.67799,-0.303168 -0.28112,-0.192926 -0.45751,-0.463021 -0.17639,-0.270096 -0.25356,-0.600825 l 0.9977,-0.143316 q 0.0992,0.413412 0.43546,0.633898 0.34175,0.225998 0.89297,0.225998 0.33624,0 0.61185,-0.09371 0.2756,-0.09371 0.46853,-0.303168 0.19293,-0.20395 0.29766,-0.534679 0.10473,-0.330729 0.10473,-0.804774 V 92.48321 h -0.011 q -0.11024,0.225999 -0.27561,0.43546 -0.15985,0.20395 -0.39687,0.363802 -0.23151,0.159853 -0.54019,0.259072 -0.30868,0.09371 -0.70556,0.09371 -0.56775,0 -0.97565,-0.187413 -0.40238,-0.192925 -0.66146,-0.573264 -0.25356,-0.380338 -0.37482,-0.942578 -0.11576,-0.567752 -0.11576,-1.311892 0,-0.71658 0.11576,-1.289844 0.12126,-0.573264 0.38585,-0.970139 0.27009,-0.402387 0.69453,-0.611849 0.42995,-0.214974 1.0418,-0.214974 0.63389,0 1.09691,0.292144 0.46854,0.286632 0.7221,0.821311 h 0.011 q 0,-0.137804 0.006,-0.308681 0.011,-0.170876 0.0165,-0.319704 0.011,-0.154341 0.0221,-0.264584 0.011,-0.110243 0.022,-0.126779 h 0.94258 q -0.006,0.04961 -0.011,0.170876 -0.006,0.115756 -0.011,0.28112 -0.006,0.165365 -0.011,0.369314 0,0.198438 0,0.413412 v 4.55855 q 0,1.251259 -0.61736,1.879644 -0.61185,0.633898 -1.87964,0.633898 z m 1.51033,-5.32474 q 0,-0.622873 -0.13781,-1.063845 -0.13229,-0.446485 -0.35277,-0.727604 -0.22049,-0.28112 -0.50712,-0.413412 -0.28112,-0.132291 -0.57878,-0.132291 -0.38034,0 -0.65595,0.132291 -0.27009,0.132292 -0.45199,0.418924 -0.17639,0.28112 -0.26458,0.727604 -0.0827,0.440972 -0.0827,1.058333 0,0.644922 0.0827,1.085894 0.0882,0.435461 0.26458,0.705556 0.17639,0.270095 0.44648,0.385851 0.2701,0.115755 0.64492,0.115755 0.29766,0 0.57878,-0.12678 0.28663,-0.126779 0.51263,-0.402387 0.226,-0.275607 0.3638,-0.711067 0.13781,-0.435461 0.13781,-1.052822 z"
           inkscape:connector-curvature="0" />
        <path
           d="m 137.01959,98.989005 c -0.12352,0.294293 -0.28527,0.536194 -0.48364,0.726256 -0.19342,0.187654 -0.41704,0.321899 -0.67052,0.403639 -0.25196,0.0779 -0.53221,0.10396 -0.84165,0.0794 -0.30461,-0.0271 -0.6326,-0.1095 -0.98626,-0.246093 -0.31661,-0.122283 -0.59237,-0.260184 -0.82798,-0.415208 -0.23362,-0.149793 -0.42475,-0.322561 -0.5737,-0.519348 -0.14891,-0.196745 -0.25427,-0.421518 -0.31592,-0.674825 -0.0568,-0.255968 -0.0644,-0.545492 -0.0221,-0.868343 0.29821,0.03572 0.59658,0.07313 0.89508,0.11224 -0.0439,0.372193 0.0288,0.684306 0.21653,0.937073 0.18936,0.249138 0.50142,0.455227 0.93731,0.623429 0.19753,0.07622 0.38371,0.130971 0.55911,0.16402 0.17877,0.03438 0.3422,0.03854 0.49071,0.01214 0.15003,-0.0303 0.28256,-0.09447 0.39758,-0.192823 0.11997,-0.100838 0.21812,-0.24454 0.29381,-0.43128 0.0773,-0.190685 0.10092,-0.36231 0.0702,-0.515153 -0.0291,-0.156679 -0.0984,-0.30455 -0.20816,-0.443264 -0.10972,-0.138679 -0.25604,-0.277982 -0.43911,-0.417165 -0.17778,-0.141511 -0.37587,-0.29713 -0.59309,-0.4651 -0.20292,-0.153652 -0.40208,-0.313682 -0.59765,-0.480201 -0.19556,-0.166513 -0.36157,-0.350039 -0.49817,-0.551171 -0.1316,-0.20376 -0.21927,-0.426655 -0.26262,-0.669082 -0.0433,-0.24232 -0.0121,-0.516061 0.0951,-0.820583 0.20611,-0.58548 0.5537,-0.963396 1.04994,-1.128186 0.50022,-0.167041 1.12725,-0.112832 1.86959,0.172047 0.65781,0.252437 1.129,0.583685 1.41052,0.983276 0.28565,0.401758 0.36347,0.893514 0.23804,1.473873 -0.30495,-0.08171 -0.61005,-0.161633 -0.91529,-0.239774 0.034,-0.176466 0.03,-0.33655 -0.0125,-0.480297 -0.0409,-0.147613 -0.10959,-0.27907 -0.20611,-0.39416 -0.095,-0.118979 -0.21516,-0.222808 -0.36044,-0.311135 -0.14011,-0.09082 -0.29394,-0.168465 -0.46125,-0.232718 -0.44369,-0.1704 -0.79996,-0.220062 -1.06482,-0.152794 -0.26528,0.06737 -0.45098,0.249651 -0.55899,0.545121 -0.0633,0.173325 -0.078,0.331047 -0.0444,0.472976 0.0386,0.139356 0.11134,0.273519 0.218,0.402794 0.11172,0.126701 0.25259,0.255684 0.4225,0.387543 0.17211,0.128469 0.35943,0.267204 0.566,0.419882 0.13552,0.102259 0.27266,0.210176 0.41127,0.323758 0.14016,0.109684 0.26991,0.229356 0.38912,0.358861 0.12428,0.127034 0.23196,0.263738 0.32299,0.409903 0.0961,0.143721 0.16618,0.299855 0.21026,0.468194 0.0441,0.168357 0.0579,0.349331 0.0417,0.542915 -0.0128,0.195061 -0.0666,0.40472 -0.16089,0.629388 z"
           style="font-style:normal;font-variant:normal;font-weight:normal;font-stretch:normal;font-family:'liberation sans';-inkscape-font-specification:'liberation sans';text-align:center;text-anchor:middle;fill:#333333;stroke-width:0.26458332px"
           id="path5527"
           inkscape:original-d="m 137.58161,91.943022 q 0,0.418924 -0.16536,0.749653 -0.15985,0.325217 -0.46853,0.551215 -0.30868,0.220486 -0.76068,0.341754 -0.44648,0.115755 -1.02526,0.115755 -0.51814,0 -0.93707,-0.08268 -0.41341,-0.07717 -0.7276,-0.253559 -0.31419,-0.176389 -0.52917,-0.463021 -0.20946,-0.292144 -0.30868,-0.711068 l 0.87643,-0.170877 q 0.12678,0.479558 0.52366,0.705556 0.39687,0.220486 1.10243,0.220486 0.3197,0 0.58429,-0.0441 0.27009,-0.0441 0.46302,-0.148828 0.19292,-0.110243 0.29765,-0.286632 0.11025,-0.181901 0.11025,-0.446485 0,-0.270095 -0.12678,-0.440972 -0.12678,-0.176389 -0.35278,-0.292144 -0.226,-0.115755 -0.55122,-0.198437 -0.3197,-0.08819 -0.70555,-0.192926 -0.35829,-0.09371 -0.71107,-0.209462 -0.35278,-0.115755 -0.63941,-0.303168 -0.28112,-0.192925 -0.45751,-0.474045 -0.17639,-0.28112 -0.17639,-0.705556 0,-0.815798 0.57878,-1.240234 0.58429,-0.429948 1.69774,-0.429948 0.98668,0 1.56545,0.347266 0.58429,0.347265 0.73863,1.113455 l -0.89297,0.110243 q -0.0496,-0.231511 -0.1819,-0.385851 -0.13229,-0.159852 -0.3197,-0.253559 -0.18741,-0.09922 -0.42444,-0.137804 -0.23151,-0.0441 -0.48507,-0.0441 -0.67248,0 -0.99218,0.20395 -0.31971,0.203949 -0.31971,0.617361 0,0.242534 0.11576,0.402387 0.12126,0.15434 0.33073,0.264583 0.21497,0.104731 0.51263,0.187413 0.29765,0.07717 0.65594,0.165365 0.23702,0.06063 0.48507,0.132292 0.24805,0.06615 0.47956,0.165364 0.23702,0.09371 0.44097,0.225998 0.20946,0.12678 0.3638,0.308681 0.15434,0.181901 0.24254,0.424436 0.0937,0.242534 0.0937,0.562239 z"
           inkscape:connector-curvature="0" />
      </g>
      <g
         aria-label="more specific reads"
         style="font-style:normal;font-weight:normal;font-size:11.28888893px;line-height:6.61458349px;font-family:Sans;letter-spacing:0px;word-spacing:0px;display:inline;fill:#333333;fill-opacity:1;stroke:none;stroke-width:0.26458332px;stroke-linecap:butt;stroke-linejoin:miter;stroke-opacity:1"
         id="text5344-5"
         transform="matrix(0.8,0,0,0.8,20.537586,40.102261)">
        <path
           d="m 56.198702,204.5438 1.970902,-3.23071 c 0.151276,-0.24797 0.261308,-0.46535 0.330222,-0.65157 0.06893,-0.18627 0.0951,-0.3535 0.07871,-0.50159 -0.01122,-0.14926 -0.06569,-0.28202 -0.163352,-0.39861 -0.09575,-0.11976 -0.232114,-0.2347 -0.409195,-0.34552 -0.183506,-0.11484 -0.371418,-0.18339 -0.564506,-0.2057 -0.191091,-0.0254 -0.382187,-0.006 -0.573604,0.0595 -0.186189,0.0641 -0.37119,0.17456 -0.554851,0.33167 -0.178412,0.15607 -0.348822,0.35899 -0.510505,0.60897 l -1.877667,2.90299 c -0.300672,-0.19481 -0.600195,-0.39113 -0.898561,-0.5889 l 2.587712,-3.91258 c 0.06893,-0.10422 0.139293,-0.21407 0.211138,-0.32957 0.07703,-0.11646 0.147429,-0.22633 0.211174,-0.32954 0.06578,-0.1063 0.121427,-0.19726 0.166935,-0.2729 0.04552,-0.0756 0.0738,-0.1252 0.08484,-0.14873 0.267771,0.17679 0.536343,0.35231 0.805709,0.52653 -0.0068,0.0175 -0.03066,0.0612 -0.07144,0.13109 -0.04081,0.0699 -0.08859,0.15064 -0.143357,0.24218 -0.04959,0.0905 -0.102751,0.18308 -0.159489,0.27772 -0.05476,0.0916 -0.102086,0.16817 -0.142046,0.22989 0.0048,0.003 0.0096,0.006 0.01441,0.009 0.170718,-0.0954 0.338546,-0.1731 0.503502,-0.23321 0.164959,-0.0601 0.332083,-0.0928 0.501474,-0.0983 0.174568,-0.007 0.352015,0.0167 0.532657,0.0696 0.185829,0.0518 0.380794,0.14137 0.585664,0.2685 0.393692,0.24431 0.658381,0.51077 0.794527,0.80383 0.139241,0.29471 0.154424,0.63813 0.04435,1.03067 0.0049,0.003 0.0098,0.006 0.01473,0.009 0.167093,-0.10161 0.335168,-0.18353 0.504216,-0.24586 0.169054,-0.0623 0.342829,-0.0965 0.521449,-0.10261 0.180493,-0.009 0.364902,0.011 0.553587,0.0607 0.190561,0.0465 0.389983,0.12944 0.599065,0.2485 0.267883,0.15254 0.478864,0.31744 0.633368,0.49626 0.15774,0.1806 0.258856,0.37922 0.303234,0.59662 0.04437,0.21732 0.03269,0.46029 -0.03548,0.72879 -0.0664,0.26519 -0.186959,0.55983 -0.362316,0.88292 l -1.897074,3.49535 c -0.314506,-0.17054 -0.627939,-0.3429 -0.940289,-0.51703 l 1.843535,-3.30495 c 0.141498,-0.25367 0.242995,-0.47517 0.304652,-0.66392 0.06167,-0.1888 0.0814,-0.3569 0.05942,-0.50421 -0.01687,-0.14868 -0.07625,-0.2792 -0.178104,-0.39189 -0.100064,-0.11594 -0.240455,-0.2255 -0.421316,-0.32943 -0.187426,-0.10769 -0.376595,-0.17061 -0.568312,-0.18873 -0.189832,-0.0213 -0.378014,0.003 -0.564887,0.0717 -0.183557,0.0711 -0.36427,0.18848 -0.541969,0.35242 -0.174368,0.16588 -0.34002,0.37986 -0.496138,0.64212 l -1.769402,2.97241 c -0.306881,-0.18268 -0.612658,-0.36701 -0.917321,-0.55295 z"
           style="font-style:normal;font-variant:normal;font-weight:normal;font-stretch:normal;font-family:'liberation sans';-inkscape-font-specification:'liberation sans';text-align:center;text-anchor:middle;fill:#333333;stroke-width:0.26458332px"
           id="path5468"
           inkscape:original-d="m 58.09086,216.94424 v -3.78133 q 0,-0.43546 -0.05512,-0.72761 -0.05512,-0.29214 -0.187413,-0.46853 -0.12678,-0.1819 -0.336241,-0.25356 -0.209462,-0.0772 -0.512631,-0.0772 -0.314192,0 -0.567751,0.12678 -0.253559,0.12127 -0.43546,0.35829 -0.176389,0.23151 -0.275608,0.57878 -0.09371,0.34175 -0.09371,0.78823 v 3.45612 h -0.986675 v -4.69084 q 0,-0.18741 -0.0055,-0.39136 0,-0.20946 -0.0055,-0.39136 -0.0055,-0.18742 -0.01102,-0.31971 -0.0055,-0.13229 -0.01102,-0.17087 h 0.937066 q 0.0055,0.0276 0.01102,0.14882 0.0055,0.12127 0.01102,0.28112 0.01102,0.15434 0.01654,0.31971 0.0055,0.15985 0.0055,0.27009 h 0.01654 q 0.132291,-0.25907 0.286632,-0.46853 0.15434,-0.20946 0.35829,-0.35278 0.209461,-0.14883 0.474045,-0.226 0.270095,-0.0827 0.622873,-0.0827 0.677995,0 1.069358,0.2701 0.396875,0.27009 0.551215,0.85989 h 0.01654 q 0.132292,-0.25907 0.297657,-0.46853 0.165364,-0.20946 0.38585,-0.35278 0.220486,-0.14883 0.496094,-0.226 0.275608,-0.0827 0.628386,-0.0827 0.451996,0 0.777213,0.12127 0.330729,0.12127 0.540191,0.37483 0.209462,0.25355 0.308681,0.65594 0.09922,0.39688 0.09922,0.94809 v 3.97426 h -0.981163 v -3.78133 q 0,-0.43546 -0.05512,-0.72761 -0.05512,-0.29214 -0.187414,-0.46853 -0.126779,-0.1819 -0.336241,-0.25356 -0.209462,-0.0772 -0.51263,-0.0772 -0.314193,0 -0.567752,0.12127 -0.253559,0.11575 -0.43546,0.34726 -0.176389,0.23151 -0.275608,0.57878 -0.09371,0.34727 -0.09371,0.80477 v 3.45612 z"
           inkscape:connector-curvature="0" />
        <path
           d="m 68.039837,207.3889 c -0.420134,0.95534 -0.955851,1.56743 -1.622994,1.82836 -0.66493,0.26007 -1.440305,0.18747 -2.305341,-0.22924 -0.410427,-0.19772 -0.748394,-0.43387 -1.012651,-0.70547 -0.264343,-0.27167 -0.447937,-0.57938 -0.550853,-0.92125 -0.0994,-0.34017 -0.117139,-0.71166 -0.05437,-1.11426 0.06799,-0.40421 0.22503,-0.83829 0.469045,-1.3042 0.958807,-1.83067 2.246888,-2.29205 3.866519,-1.51008 0.424515,0.20496 0.763677,0.43551 1.018973,0.69571 0.258567,0.26162 0.434954,0.55358 0.528912,0.8779 0.09735,0.32572 0.117602,0.68652 0.05939,1.08236 -0.05818,0.39568 -0.189747,0.82973 -0.39663,1.30017 z m -1.004873,-0.45029 c 0.192072,-0.42084 0.315578,-0.78487 0.371375,-1.09039 0.05931,-0.30411 0.06117,-0.56818 0.006,-0.79209 -0.05175,-0.22241 -0.154884,-0.40833 -0.30966,-0.5585 -0.153252,-0.15354 -0.345221,-0.28557 -0.576459,-0.39711 -0.234642,-0.11318 -0.463455,-0.18211 -0.687568,-0.20657 -0.219048,-0.0261 -0.435637,0.01 -0.650469,0.10759 -0.213121,0.0946 -0.423765,0.25803 -0.631649,0.49058 -0.204357,0.23416 -0.409662,0.55288 -0.614205,0.95589 -0.209702,0.41318 -0.3452,0.77476 -0.405545,1.08633 -0.05865,0.30812 -0.06088,0.5765 -0.0064,0.80516 0.05799,0.23037 0.164022,0.42467 0.317787,0.58226 0.15732,0.15933 0.34787,0.29318 0.571111,0.4008 0.248441,0.11977 0.489242,0.19562 0.72128,0.2278 0.233656,0.0289 0.459065,-0.006 0.675445,-0.10416 0.216453,-0.0982 0.425694,-0.26881 0.627971,-0.51157 0.202389,-0.2429 0.398761,-0.57478 0.59101,-0.99602 z"
           style="font-style:normal;font-variant:normal;font-weight:normal;font-stretch:normal;font-family:'liberation sans';-inkscape-font-specification:'liberation sans';text-align:center;text-anchor:middle;fill:#333333;stroke-width:0.26458332px"
           id="path5470"
           inkscape:original-d="m 69.07658,213.95666 q 0,1.56545 -0.689019,2.33164 -0.689019,0.76619 -2.000912,0.76619 -0.622873,0 -1.113454,-0.18742 -0.490582,-0.18741 -0.832336,-0.57326 -0.336241,-0.38585 -0.518142,-0.96463 -0.176389,-0.58428 -0.176389,-1.37252 0,-3.08681 2.673394,-3.08681 0.694532,0 1.196137,0.19293 0.507119,0.19292 0.826823,0.57877 0.325217,0.38585 0.479558,0.96463 0.15434,0.57878 0.15434,1.35048 z m -1.041797,0 q 0,-0.69453 -0.110243,-1.14653 -0.104731,-0.452 -0.314193,-0.72209 -0.203949,-0.2701 -0.501606,-0.37483 -0.297656,-0.11024 -0.672482,-0.11024 -0.380339,0 -0.689019,0.11575 -0.303169,0.11025 -0.518143,0.38585 -0.214974,0.2701 -0.330729,0.7221 -0.110243,0.45199 -0.110243,1.12999 0,0.69453 0.121267,1.15204 0.121268,0.45199 0.33073,0.72209 0.214974,0.2701 0.501606,0.38034 0.292144,0.11024 0.633897,0.11024 0.380339,0 0.689019,-0.10473 0.308681,-0.11024 0.523655,-0.38034 0.214974,-0.27009 0.330729,-0.7276 0.115755,-0.45751 0.115755,-1.15204 z"
           inkscape:connector-curvature="0" />
        <path
           d="m 68.11067,210.66803 1.76826,-4.21521 c 0.04829,-0.11512 0.09554,-0.23266 0.14178,-0.35262 0.05114,-0.12188 0.09841,-0.23942 0.141832,-0.35259 0.04342,-0.11318 0.08402,-0.21958 0.121774,-0.31921 0.03777,-0.0996 0.07129,-0.18909 0.100543,-0.26839 0.292479,0.12303 0.585631,0.24411 0.879449,0.36321 -0.02823,0.0797 -0.06128,0.17123 -0.09912,0.27473 -0.033,0.10149 -0.06908,0.20571 -0.108252,0.31262 -0.0357,0.10833 -0.07347,0.21184 -0.11337,0.31054 -0.03503,0.0967 -0.06628,0.17909 -0.0938,0.24718 0.007,0.003 0.01406,0.006 0.0211,0.009 0.152012,-0.18404 0.2953,-0.33811 0.429991,-0.46209 0.139549,-0.126 0.279257,-0.21849 0.41922,-0.27755 0.141336,-0.0625 0.290587,-0.0905 0.448068,-0.0843 0.158863,0.003 0.33694,0.0422 0.535074,0.11768 0.07647,0.0291 0.146898,0.0636 0.211345,0.10361 0.06576,0.0366 0.115847,0.0671 0.150331,0.0918 l -0.318324,0.85083 c -0.05711,-0.041 -0.126647,-0.0808 -0.208643,-0.11968 -0.08071,-0.0423 -0.173804,-0.0835 -0.279363,-0.12394 -0.218121,-0.0835 -0.422661,-0.10806 -0.614912,-0.0731 -0.188678,0.0363 -0.366323,0.11985 -0.533114,0.25091 -0.161865,0.12903 -0.313398,0.30164 -0.454144,0.51799 -0.139368,0.21294 -0.265082,0.45723 -0.376313,0.73294 l -1.161965,2.88009 c -0.336836,-0.13575 -0.672655,-0.27377 -1.007448,-0.41403 z"
           style="font-style:normal;font-variant:normal;font-weight:normal;font-stretch:normal;font-family:'liberation sans';-inkscape-font-specification:'liberation sans';text-align:center;text-anchor:middle;fill:#333333;stroke-width:0.26458332px"
           id="path5472"
           inkscape:original-d="m 70.338862,216.94424 v -4.57508 q 0,-0.18742 -0.0055,-0.38034 0,-0.19844 -0.0055,-0.38034 -0.0055,-0.1819 -0.01102,-0.34175 -0.0055,-0.15986 -0.01102,-0.28663 h 0.937066 q 0.0055,0.12677 0.01102,0.29214 0.01102,0.15985 0.01654,0.33073 0.01102,0.17088 0.01102,0.33073 0.0055,0.15434 0.0055,0.26458 h 0.02205 q 0.104731,-0.34175 0.220486,-0.5898 0.121268,-0.25356 0.28112,-0.41341 0.159853,-0.16537 0.380339,-0.24254 0.220486,-0.0827 0.534678,-0.0827 0.121268,0 0.231511,0.022 0.110243,0.0165 0.170877,0.0331 v 0.90951 q -0.09922,-0.0276 -0.231511,-0.0386 -0.132291,-0.0165 -0.297656,-0.0165 -0.341754,0 -0.584288,0.15434 -0.237023,0.15434 -0.391363,0.42995 -0.148828,0.27009 -0.220486,0.65043 -0.07166,0.37483 -0.07166,0.82131 v 3.10885 z"
           inkscape:connector-curvature="0" />
        <path
           d="m 73.642638,209.82024 c -0.101972,0.29491 -0.164813,0.57796 -0.1875,0.84972 -0.01777,0.26953 0.01013,0.51772 0.08442,0.74455 0.07921,0.22458 0.21032,0.42371 0.393533,0.59651 0.184303,0.16924 0.429901,0.30363 0.735838,0.40108 0.447477,0.14255 0.832504,0.16996 1.150289,0.0855 0.321864,-0.0833 0.566991,-0.23929 0.736216,-0.46531 0.277597,0.16725 0.556944,0.33285 0.838063,0.49675 -0.109374,0.1412 -0.246579,0.27654 -0.412031,0.40541 -0.160593,0.12643 -0.358522,0.22675 -0.593939,0.29998 -0.234333,0.0697 -0.513949,0.10245 -0.837997,0.0967 -0.319,-0.008 -0.68872,-0.0776 -1.105927,-0.21056 -0.927946,-0.29574 -1.546099,-0.78783 -1.847819,-1.44972 -0.299011,-0.66293 -0.262192,-1.47863 0.09119,-2.45215 0.190255,-0.52414 0.420525,-0.94286 0.686687,-1.25634 0.267588,-0.31715 0.558426,-0.54863 0.87203,-0.69543 0.313745,-0.14687 0.641886,-0.21816 0.986174,-0.21489 0.34555,-2.1e-4 0.693785,0.056 1.047325,0.16844 0.48084,0.15287 0.859243,0.35186 1.137953,0.60316 0.282065,0.25215 0.483769,0.54299 0.604456,0.87495 0.125247,0.32928 0.179885,0.69149 0.161691,1.08663 -0.01019,0.2782 -0.04548,0.56553 -0.106633,0.86163 0,0 0,0 0,0 0,0 0,0 0,0 0,0 0,0 0,0 0,0 0,0 0,0 0,0 0,0 0,0 0,0 0,0 0,0 -0.02593,0.12557 -0.05652,0.25274 -0.09184,0.38148 l -0.03499,0.12757 c -0.004,-0.001 -0.008,-0.002 -0.012,-0.003 -1.446956,-0.39728 -2.878922,-0.84266 -4.295185,-1.33239 z m 3.473919,0.30964 c 0.120334,-0.6188 0.08956,-1.1047 -0.08824,-1.45637 -0.177132,-0.35596 -0.505349,-0.60672 -0.987617,-0.76028 -0.160838,-0.0512 -0.338767,-0.0796 -0.534411,-0.0857 -0.190913,-0.008 -0.382711,0.0265 -0.576162,0.10482 -0.193413,0.0783 -0.380262,0.21057 -0.560719,0.39705 -0.179173,0.18292 -0.335553,0.44174 -0.467564,0.77657 1.063004,0.3673 2.134678,0.70916 3.214711,1.02392 z"
           style="font-style:normal;font-variant:normal;font-weight:normal;font-stretch:normal;font-family:'liberation sans';-inkscape-font-specification:'liberation sans';text-align:center;text-anchor:middle;fill:#333333;stroke-width:0.26458332px"
           id="path5474"
           inkscape:original-d="m 74.847804,214.17163 q 0,0.46853 0.09371,0.86541 0.09922,0.39136 0.297656,0.67799 0.20395,0.28112 0.518142,0.44098 0.314193,0.15434 0.755165,0.15434 0.644922,0 1.030773,-0.25907 0.391363,-0.25908 0.529166,-0.65595 l 0.870921,0.24805 q -0.09371,0.24804 -0.264584,0.5016 -0.165364,0.24805 -0.446484,0.452 -0.28112,0.19844 -0.705556,0.33073 -0.418923,0.12678 -1.014236,0.12678 -1.322916,0 -2.017448,-0.78824 -0.689019,-0.78824 -0.689019,-2.34267 0,-0.83784 0.209462,-1.41662 0.209462,-0.58429 0.573264,-0.94809 0.363802,-0.3638 0.848871,-0.52365 0.48507,-0.16537 1.036285,-0.16537 0.749653,0 1.251259,0.24254 0.507118,0.24253 0.810286,0.67248 0.308681,0.42444 0.43546,1.00321 0.132292,0.57878 0.132292,1.25126 v 0.13229 z m 3.230122,-0.76068 q -0.08268,-0.94257 -0.479558,-1.37252 -0.396875,-0.43546 -1.141015,-0.43546 -0.248047,0 -0.523655,0.0827 -0.270095,0.0772 -0.501606,0.28112 -0.23151,0.20395 -0.391363,0.55673 -0.159852,0.34726 -0.181901,0.88745 z"
           inkscape:connector-curvature="0" />
        <path
           d="m 86.99216,214.17564 c -0.0392,0.27608 -0.132842,0.51442 -0.28237,0.71468 -0.145025,0.19715 -0.339376,0.35336 -0.58348,0.46764 -0.243483,0.1106 -0.534778,0.17962 -0.873234,0.20554 -0.333819,0.0229 -0.71025,-0.002 -1.127266,-0.0763 -0.373356,-0.0666 -0.70603,-0.15639 -0.996998,-0.26793 -0.28773,-0.10719 -0.532901,-0.24151 -0.734935,-0.40175 -0.202073,-0.1603 -0.360252,-0.35012 -0.474534,-0.56875 -0.109654,-0.22146 -0.170277,-0.47606 -0.182595,-0.76373 0.320024,0.01 0.639654,0.0179 0.958891,0.024 0.02729,0.33089 0.167209,0.59824 0.421286,0.80055 0.254446,0.19844 0.63471,0.34535 1.138395,0.43517 0.228226,0.0407 0.439465,0.0625 0.633219,0.0658 0.19771,0.004 0.371052,-0.0173 0.519685,-0.0635 0.149241,-0.0498 0.270129,-0.12682 0.362719,-0.2308 0.0971,-0.10701 0.158824,-0.24759 0.185729,-0.4216 0.02746,-0.17761 0.0051,-0.32977 -0.06658,-0.45645 -0.07109,-0.13034 -0.179774,-0.24641 -0.325872,-0.34867 -0.146145,-0.10228 -0.32815,-0.19972 -0.546086,-0.29319 -0.212407,-0.096 -0.449442,-0.20352 -0.704457,-0.32049 -0.238171,-0.10673 -0.472318,-0.22139 -0.702238,-0.3439 -0.229926,-0.12251 -0.431544,-0.26505 -0.604609,-0.42697 -0.168583,-0.16477 -0.294195,-0.35156 -0.377162,-0.55979 -0.08301,-0.20834 -0.09506,-0.45065 -0.03775,-0.72726 0.110124,-0.53152 0.388796,-0.89427 0.828446,-1.09319 0.445121,-0.20229 1.032831,-0.23194 1.774247,-0.0999 0.6572,0.11705 1.161095,0.31556 1.515755,0.60557 0.357709,0.29007 0.555194,0.69393 0.588313,1.21436 -0.310332,-0.009 -0.620713,-0.0196 -0.931138,-0.032 -0.01026,-0.15763 -0.05247,-0.29441 -0.12631,-0.41038 -0.07328,-0.11962 -0.168298,-0.22061 -0.285059,-0.3032 -0.11619,-0.0862 -0.251956,-0.15552 -0.407485,-0.20827 -0.151213,-0.0557 -0.311972,-0.0987 -0.482525,-0.12905 -0.452376,-0.0806 -0.796796,-0.077 -1.037051,0.0152 -0.239839,0.0921 -0.386798,0.27238 -0.438911,0.54247 -0.03057,0.15846 -0.01672,0.29758 0.04215,0.41741 0.06329,0.11691 0.159768,0.22523 0.289623,0.32455 0.134268,0.0964 0.298746,0.1907 0.493451,0.28224 0.195219,0.0879 0.411657,0.18264 0.6487,0.28341 0.156667,0.0682 0.316854,0.14025 0.480684,0.2161 0.164413,0.0722 0.321731,0.15386 0.472095,0.245 0.154751,0.0882 0.296515,0.18674 0.425371,0.29594 0.133235,0.10617 0.245077,0.2272 0.335494,0.36334 0.09041,0.13612 0.155304,0.28863 0.194445,0.45762 0.04301,0.16955 0.04986,0.35973 0.01995,0.57038 -2e-6,10e-6 -5e-6,2e-5 -7e-6,3e-5 z"
           style="font-style:normal;font-variant:normal;font-weight:normal;font-stretch:normal;font-family:'liberation sans';-inkscape-font-specification:'liberation sans';text-align:center;text-anchor:middle;fill:#333333;stroke-width:0.26458332px"
           id="path5476"
           inkscape:original-d="m 87.977752,215.29611 q 0,0.41892 -0.165365,0.74965 -0.159852,0.32522 -0.468533,0.55122 -0.30868,0.22048 -0.760677,0.34175 -0.446484,0.11576 -1.02526,0.11576 -0.518143,0 -0.937066,-0.0827 -0.413412,-0.0772 -0.727604,-0.25356 -0.314193,-0.17639 -0.529167,-0.46302 -0.209462,-0.29215 -0.308681,-0.71107 l 0.876433,-0.17088 q 0.126779,0.47956 0.523654,0.70556 0.396875,0.22048 1.102431,0.22048 0.319705,0 0.584288,-0.0441 0.270095,-0.0441 0.463021,-0.14883 0.192925,-0.11025 0.297656,-0.28663 0.110243,-0.18191 0.110243,-0.44649 0,-0.27009 -0.126779,-0.44097 -0.12678,-0.17639 -0.352778,-0.29215 -0.225998,-0.11575 -0.551216,-0.19843 -0.319704,-0.0882 -0.705555,-0.19293 -0.35829,-0.0937 -0.711068,-0.20946 -0.352778,-0.11576 -0.63941,-0.30317 -0.281119,-0.19292 -0.457508,-0.47404 -0.176389,-0.28112 -0.176389,-0.70556 0,-0.8158 0.578776,-1.24023 0.584288,-0.42995 1.697743,-0.42995 0.986675,0 1.565451,0.34726 0.584289,0.34727 0.738629,1.11346 l -0.892969,0.11024 q -0.04961,-0.23151 -0.181901,-0.38585 -0.132292,-0.15985 -0.319705,-0.25356 -0.187413,-0.0992 -0.424436,-0.1378 -0.23151,-0.0441 -0.485069,-0.0441 -0.672483,0 -0.992187,0.20395 -0.319705,0.20395 -0.319705,0.61736 0,0.24254 0.115755,0.40239 0.121267,0.15434 0.330729,0.26458 0.214974,0.10473 0.51263,0.18742 0.297656,0.0772 0.655946,0.16536 0.237023,0.0606 0.48507,0.13229 0.248047,0.0662 0.479557,0.16537 0.237023,0.0937 0.440972,0.22599 0.209462,0.12678 0.363802,0.30869 0.154341,0.1819 0.242535,0.42443 0.09371,0.24254 0.09371,0.56224 z"
           inkscape:connector-curvature="0" />
        <path
           d="m 93.710263,213.5587 c -0.03152,0.45101 -0.09937,0.86391 -0.204963,1.23896 -0.105578,0.375 -0.261221,0.69231 -0.468041,0.95158 -0.202801,0.25954 -0.464119,0.45473 -0.784009,0.58431 -0.315472,0.12622 -0.69806,0.16771 -1.14538,0.12217 -0.463319,-0.0472 -0.860938,-0.17201 -1.190223,-0.3721 -0.329464,-0.2002 -0.56399,-0.4946 -0.703538,-0.88144 -0.0099,-0.001 -0.01973,-0.002 -0.02959,-0.004 0.0031,0.008 0.0013,0.0408 -0.0054,0.0992 -0.0028,0.0588 -0.0092,0.13202 -0.01931,0.21953 -0.0061,0.088 -0.0155,0.18671 -0.0281,0.2961 -0.0082,0.10625 -0.01841,0.21225 -0.03059,0.318 l -0.266412,2.31385 c -0.367765,-0.0451 -0.735544,-0.0923 -1.103311,-0.14162 l 0.893439,-7.02249 c 0.01806,-0.14197 0.03355,-0.27875 0.04649,-0.4103 0.01668,-0.13105 0.02987,-0.24963 0.03959,-0.35569 0.01018,-0.10971 0.01828,-0.20303 0.0243,-0.27997 0.006,-0.077 0.0093,-0.13205 0.0097,-0.1653 0.323492,0.043 0.647439,0.0843 0.971816,0.12378 0.0025,0.0114 0.0017,0.0501 -0.0021,0.11622 -1.35e-4,0.0665 -0.0038,0.14744 -0.01102,0.24271 -0.0031,0.0921 -0.0088,0.19122 -0.01723,0.29743 -0.0047,0.10666 -0.01248,0.20739 -0.02341,0.30221 0.0075,9.2e-4 0.01508,0.002 0.02262,0.003 0.116062,-0.1782 0.2414,-0.3259 0.376084,-0.44314 0.135101,-0.12089 0.28375,-0.21458 0.446125,-0.28122 0.162777,-0.0703 0.339294,-0.11358 0.529941,-0.13005 0.194775,-0.0197 0.409788,-0.0175 0.645597,0.006 0.419212,0.0422 0.764886,0.14804 1.038754,0.32023 0.2775,0.17245 0.49353,0.39911 0.647843,0.6811 0.158329,0.27857 0.262932,0.60963 0.312693,0.99324 0.05002,0.3799 0.05967,0.79925 0.02766,1.25741 6e-6,0 1.1e-5,-1e-5 1.7e-5,-1e-5 z m -1.10037,-0.0702 c 0.02962,-0.36613 0.03277,-0.69429 0.01007,-0.98395 -0.02271,-0.2897 -0.08309,-0.53866 -0.180574,-0.74678 -0.0937,-0.20783 -0.228728,-0.37166 -0.404994,-0.49194 -0.17633,-0.12032 -0.403657,-0.19432 -0.682775,-0.22319 -0.22631,-0.0234 -0.442262,-0.0152 -0.648529,0.0249 -0.206236,0.0401 -0.394216,0.13877 -0.56465,0.2964 -0.166598,0.15801 -0.311361,0.38676 -0.434186,0.68623 -0.122332,0.29563 -0.212685,0.69002 -0.269341,1.18209 -0.0483,0.41952 -0.0525,0.77927 -0.01147,1.08018 0.04143,0.29715 0.123026,0.54348 0.245132,0.73899 0.12601,0.19593 0.29183,0.34631 0.497136,0.45058 0.205644,0.1006 0.447585,0.16579 0.725029,0.19479 0.297266,0.0311 0.548134,0.002 0.751499,-0.0848 0.207395,-0.0869 0.376714,-0.22597 0.50795,-0.41674 0.135207,-0.19044 0.237809,-0.42824 0.308383,-0.71333 0.07089,-0.28881 0.121091,-0.61982 0.151318,-0.99344 z"
           style="font-style:normal;font-variant:normal;font-weight:normal;font-stretch:normal;font-family:'liberation sans';-inkscape-font-specification:'liberation sans';text-align:center;text-anchor:middle;fill:#333333;stroke-width:0.26458332px"
           id="path5478"
           inkscape:original-d="m 94.189949,213.93461 q 0,0.67799 -0.110243,1.25126 -0.110243,0.57326 -0.369314,0.98667 -0.253559,0.41341 -0.677995,0.65044 -0.418924,0.23151 -1.036285,0.23151 -0.63941,0 -1.118967,-0.24254 -0.479557,-0.24253 -0.733116,-0.79375 h -0.02756 q 0.0055,0.011 0.0055,0.0992 0.0055,0.0882 0.0055,0.22049 0.0055,0.13229 0.0055,0.29765 0.0055,0.15986 0.0055,0.31971 v 2.33164 h -0.992188 v -7.08863 q 0,-0.21497 -0.0055,-0.41341 0,-0.19844 -0.0055,-0.35829 -0.0055,-0.16537 -0.01102,-0.28112 -0.0055,-0.11576 -0.01102,-0.16536 h 0.959115 q 0.0055,0.0165 0.01102,0.11575 0.01102,0.0992 0.01654,0.24253 0.01102,0.13781 0.01654,0.29766 0.01102,0.15985 0.01102,0.30317 h 0.02205 q 0.137804,-0.28663 0.314193,-0.48507 0.176389,-0.20395 0.402387,-0.33073 0.225998,-0.13229 0.501606,-0.18741 0.28112,-0.0606 0.628385,-0.0606 0.617361,0 1.036285,0.22049 0.424436,0.22049 0.677995,0.62287 0.259071,0.39688 0.369314,0.96463 0.110243,0.56224 0.110243,1.25126 z m -1.041797,0.0221 q 0,-0.55122 -0.06615,-0.98117 -0.06615,-0.42994 -0.23151,-0.7276 -0.159853,-0.29766 -0.429948,-0.452 -0.270096,-0.15434 -0.677995,-0.15434 -0.330729,0 -0.622873,0.0937 -0.292144,0.0937 -0.51263,0.35829 -0.214974,0.26458 -0.341754,0.73312 -0.126779,0.46302 -0.126779,1.20716 0,0.6339 0.104731,1.07487 0.10473,0.43546 0.303168,0.70555 0.20395,0.2701 0.501606,0.39137 0.297656,0.11575 0.683507,0.11575 0.413411,0 0.683507,-0.15985 0.275607,-0.15985 0.43546,-0.46302 0.165364,-0.30317 0.23151,-0.73863 0.06615,-0.44097 0.06615,-1.00321 z"
           inkscape:connector-curvature="0" />
        <path
           d="m 95.811511,213.94179 c -0.01556,0.31217 0.0032,0.60234 0.05692,0.87074 0.05785,0.26493 0.153215,0.49697 0.286511,0.69602 0.13739,0.19557 0.316851,0.35275 0.538297,0.47103 0.221552,0.11457 0.491464,0.17952 0.808755,0.19389 0.464035,0.021 0.837585,-0.0511 1.118763,-0.21368 0.285259,-0.16252 0.479328,-0.37515 0.583151,-0.63664 0.309114,0.0928 0.618794,0.18453 0.928992,0.27521 -0.0692,0.16372 -0.166294,0.32858 -0.291581,0.49433 -0.121256,0.16218 -0.284329,0.30841 -0.489496,0.43817 -0.205062,0.12606 -0.462126,0.2281 -0.771095,0.30507 -0.304817,0.0734 -0.673348,0.10126 -1.104278,0.0818 -0.958346,-0.0434 -1.678477,-0.34991 -2.150028,-0.9063 -0.468667,-0.55741 -0.665286,-1.35336 -0.603071,-2.38866 0.0335,-0.55751 0.135493,-1.0243 0.303255,-1.39958 0.168057,-0.37913 0.383922,-0.68185 0.647224,-0.90852 0.263385,-0.22674 0.563408,-0.38392 0.901171,-0.47226 0.337981,-0.092 0.695446,-0.12917 1.073997,-0.11184 0.514872,0.0236 0.942299,0.12102 1.284361,0.29521 0.345703,0.17423 0.621409,0.40721 0.826896,0.7002 0.209323,0.28936 0.356355,0.62803 0.439915,1.01635 0.0874,0.38839 0.12903,0.80695 0.12359,1.25545 l -0.002,0.13236 c -1.503987,-0.0371 -3.008277,-0.0983 -4.510649,-0.18831 z m 3.439244,-0.60381 c -0.04511,-0.63041 -0.203057,-1.09396 -0.471388,-1.39057 -0.268557,-0.30062 -0.658736,-0.46087 -1.172939,-0.48447 -0.171448,-0.008 -0.353302,0.011 -0.545995,0.0566 -0.188725,0.0421 -0.366012,0.1266 -0.532356,0.25374 -0.166318,0.12713 -0.310665,0.30493 -0.43315,0.53349 -0.122265,0.22481 -0.200569,0.51677 -0.233925,0.87562 1.128688,0.0675 2.258926,0.11866 3.389753,0.1556 z"
           style="font-style:normal;font-variant:normal;font-weight:normal;font-stretch:normal;font-family:'liberation sans';-inkscape-font-specification:'liberation sans';text-align:center;text-anchor:middle;fill:#333333;stroke-width:0.26458332px"
           id="path5480"
           inkscape:original-d="m 96.190858,214.17163 q 0,0.46853 0.09371,0.86541 0.09922,0.39136 0.297657,0.67799 0.203949,0.28112 0.518142,0.44098 0.314193,0.15434 0.755165,0.15434 0.644922,0 1.030773,-0.25907 0.391362,-0.25908 0.529166,-0.65595 l 0.870919,0.24805 q -0.0937,0.24804 -0.26459,0.5016 -0.165357,0.24805 -0.446476,0.452 -0.28112,0.19844 -0.705556,0.33073 -0.418923,0.12678 -1.014236,0.12678 -1.322917,0 -2.017448,-0.78824 -0.689019,-0.78824 -0.689019,-2.34267 0,-0.83784 0.209462,-1.41662 0.209462,-0.58429 0.573264,-0.94809 0.363802,-0.3638 0.848871,-0.52365 0.48507,-0.16537 1.036285,-0.16537 0.749653,0 1.251259,0.24254 0.507118,0.24253 0.810286,0.67248 0.308678,0.42444 0.435458,1.00321 0.13229,0.57878 0.13229,1.25126 v 0.13229 z m 3.230121,-0.76068 q -0.08268,-0.94257 -0.479557,-1.37252 -0.396875,-0.43546 -1.141016,-0.43546 -0.248046,0 -0.523654,0.0827 -0.270096,0.0772 -0.501606,0.28112 -0.23151,0.20395 -0.391363,0.55673 -0.159852,0.34726 -0.181901,0.88745 z"
           inkscape:connector-curvature="0" />
        <path
           d="m 102.46579,213.93009 c 0.001,0.34182 0.0276,0.65622 0.0797,0.94339 0.056,0.28719 0.14735,0.53599 0.27444,0.74639 0.0562,0.0914 0.12013,0.17385 0.1918,0.2473 0,0 0,0 0,0 0,0 0,0 0,0 0.0899,0.0903 0.192,0.16606 0.3063,0.2272 0.20882,0.10952 0.46469,0.16092 0.76725,0.15365 0.37726,-0.009 0.69067,-0.11307 0.93905,-0.31137 0.25241,-0.19849 0.40399,-0.49741 0.45543,-0.89645 0.35654,0.0111 0.71333,0.0214 1.07036,0.0307 -0.0294,0.24772 -0.1002,0.48768 -0.213,0.7198 -0.11279,0.23212 -0.26987,0.43801 -0.47142,0.61743 -0.19759,0.17928 -0.44166,0.32659 -0.73198,0.4415 -0.29037,0.11122 -0.62722,0.17162 -1.00972,0.18071 -0.42124,0.01 -0.78971,-0.0383 -1.10486,-0.14397 -0.06,-0.0214 -0.11806,-0.0449 -0.17423,-0.0703 -0.35387,-0.16035 -0.64157,-0.38026 -0.86284,-0.65871 -0.21737,-0.28213 -0.37409,-0.61163 -0.471,-0.98821 -0.0969,-0.38029 -0.14378,-0.79093 -0.14188,-1.23214 0.002,-0.40063 0.0382,-0.75309 0.10872,-1.05694 0.0705,-0.30757 0.16749,-0.57438 0.29058,-0.80034 0.12693,-0.22961 0.27429,-0.42047 0.44214,-0.57266 0.16786,-0.15588 0.34859,-0.27875 0.54249,-0.36875 0.0733,-0.0347 0.14778,-0.0656 0.2236,-0.0928 0.12994,-0.0503 0.26366,-0.0899 0.40122,-0.11872 0.21848,-0.0495 0.43889,-0.0772 0.6614,-0.0831 0.3491,-0.009 0.66019,0.0276 0.93395,0.11126 0.27375,0.0837 0.51,0.20303 0.709,0.35836 0.20274,0.15153 0.36817,0.33354 0.49618,0.5462 0.128,0.21266 0.22027,0.44312 0.27643,0.6914 -0.35673,0.0387 -0.71373,0.0765 -1.07095,0.11343 -0.0601,-0.32928 -0.20184,-0.58798 -0.42449,-0.77628 -0.22274,-0.18837 -0.53566,-0.27671 -0.93985,-0.26605 -0.29643,0.008 -0.54429,0.0617 -0.7439,0.16199 -0.10871,0.0536 -0.20608,0.12217 -0.29214,0.20574 0,0 0,0 0,0 0,0 0,0 0,0 -0.0685,0.0648 -0.12984,0.13944 -0.184,0.22393 -0.12177,0.18628 -0.20925,0.42248 -0.26211,0.70854 -0.049,0.28607 -0.0731,0.62222 -0.0717,1.00804 1e-5,-2e-5 2e-5,-3e-5 2e-5,-4e-5 z"
           style="font-style:normal;font-variant:normal;font-weight:normal;font-stretch:normal;font-family:'liberation sans';-inkscape-font-specification:'liberation sans';text-align:center;text-anchor:middle;fill:#333333;stroke-width:0.26458332px"
           id="path5482"
           inkscape:original-d="m 102.4692,213.93461 q 0,0.51263 0.0717,0.94258 0.0772,0.42995 0.25356,0.74414 0.17639,0.30868 0.46302,0.47956 0.29214,0.17087 0.71658,0.17087 0.52917,0 0.88194,-0.28663 0.35829,-0.28663 0.44098,-0.88194 l 1.00321,0.0661 q -0.0496,0.36932 -0.21498,0.71107 -0.16536,0.34175 -0.45199,0.60082 -0.28112,0.25907 -0.68902,0.41893 -0.4079,0.15434 -0.94258,0.15434 -0.70004,0 -1.19063,-0.23703 -0.49058,-0.23702 -0.79926,-0.65043 -0.30317,-0.41892 -0.44097,-0.98116 -0.1378,-0.56775 -0.1378,-1.22921 0,-0.60083 0.0992,-1.05834 0.0992,-0.46302 0.2756,-0.80477 0.1819,-0.34727 0.42444,-0.57878 0.24253,-0.23702 0.52365,-0.37482 0.28664,-0.14332 0.60083,-0.20395 0.31419,-0.0661 0.6339,-0.0661 0.5016,0 0.89296,0.13781 0.39137,0.1378 0.67249,0.38033 0.28663,0.23703 0.46302,0.56224 0.17639,0.32522 0.24804,0.70005 l -1.01974,0.0772 q -0.0772,-0.4961 -0.39137,-0.78824 -0.31419,-0.29214 -0.89297,-0.29214 -0.42443,0 -0.71106,0.14331 -0.28112,0.13781 -0.45751,0.42444 -0.17639,0.28112 -0.25356,0.71106 -0.0717,0.42995 -0.0717,1.00873 z"
           inkscape:connector-curvature="0" />
        <path
           d="m 107.50654,209.56553 -0.0289,-0.94893 c 0.33916,-0.0145 0.67785,-0.0298 1.01604,-0.0461 l 0.0352,0.94873 c -0.34037,0.0164 -0.68116,0.0318 -1.02233,0.0463 z m 0.22036,7.23837 -0.18173,-5.96944 c 0.34387,-0.0146 0.68746,-0.0301 1.03074,-0.0466 l 0.22129,5.96817 c -0.35697,0.0171 -0.71375,0.033 -1.0703,0.0479 z"
           style="font-style:normal;font-variant:normal;font-weight:normal;font-stretch:normal;font-family:'liberation sans';-inkscape-font-specification:'liberation sans';text-align:center;text-anchor:middle;fill:#333333;stroke-width:0.26458332px"
           id="path5484"
           inkscape:original-d="m 107.35297,209.7123 v -0.94809 h 0.99219 v 0.94809 z m 0,7.23194 v -5.96414 h 0.99219 v 5.96414 z"
           inkscape:connector-curvature="0" />
        <path
           d="m 111.47083,211.34619 0.30505,5.23803 c -0.35784,0.0244 -0.71557,0.0473 -1.07315,0.0689 l -0.26288,-5.24151 c -0.29046,0.0174 -0.58113,0.0339 -0.872,0.0496 l -0.0316,-0.72233 c 0.28937,-0.0156 0.5785,-0.032 0.86737,-0.0493 l -0.0337,-0.67242 c -0.0109,-0.21677 -1.3e-4,-0.41828 0.0319,-0.60447 0.0319,-0.18986 0.0988,-0.35605 0.20034,-0.49866 0.1051,-0.14652 0.25074,-0.26431 0.43674,-0.35374 0.18586,-0.0931 0.42923,-0.14975 0.73049,-0.17088 0.11901,-0.008 0.242,-0.0116 0.36901,-0.01 0.13074,0.001 0.24506,0.01 0.34308,0.0242 l 0.0516,0.75383 c -0.0643,-0.006 -0.13962,-0.01 -0.22611,-0.0107 -0.083,-0.005 -0.15811,-0.005 -0.22544,-4e-5 -0.14962,0.0108 -0.27185,0.0397 -0.36681,0.0868 -0.0912,0.0469 -0.16266,0.11073 -0.21439,0.19168 -0.0482,0.077 -0.0804,0.17133 -0.0966,0.283 -0.0124,0.1114 -0.0145,0.23874 -0.006,0.38194 l 0.0311,0.53427 c 0.40013,-0.0268 0.79973,-0.0554 1.19875,-0.0858 l 0.0493,0.72082 c -0.4015,0.0308 -0.8035,0.0596 -1.20594,0.0867 z"
           style="font-style:normal;font-variant:normal;font-weight:normal;font-stretch:normal;font-family:'liberation sans';-inkscape-font-specification:'liberation sans';text-align:center;text-anchor:middle;fill:#333333;stroke-width:0.26458332px"
           id="path5486"
           inkscape:original-d="m 111.10123,211.70219 v 5.24205 h -0.99219 v -5.24205 h -0.83784 v -0.72209 h 0.83784 v -0.67249 q 0,-0.32521 0.0606,-0.60082 0.0606,-0.28112 0.22048,-0.48507 0.16537,-0.20946 0.44649,-0.32522 0.28112,-0.12127 0.7276,-0.12127 0.17639,0 0.3638,0.0165 0.19293,0.0165 0.33625,0.0496 v 0.75516 q -0.0937,-0.0165 -0.22049,-0.0276 -0.12127,-0.0165 -0.22049,-0.0165 -0.22048,0 -0.3638,0.0606 -0.1378,0.0606 -0.22048,0.17639 -0.0772,0.11024 -0.11025,0.27561 -0.0276,0.16536 -0.0276,0.38034 v 0.53468 h 1.16307 v 0.72209 z"
           inkscape:connector-curvature="0" />
        <path
           d="m 113.28634,209.21429 -0.0711,-0.94573 c 0.33292,-0.0273 0.6652,-0.0559 0.99682,-0.0861 l 0.0801,0.94465 c -0.33472,0.0305 -0.67001,0.0595 -1.00585,0.0871 z m 0.54225,7.21393 -0.44719,-5.94929 c 0.33976,-0.0281 0.67908,-0.0576 1.01792,-0.0886 l 0.504,5.9425 c -0.35829,0.0334 -0.71654,0.0652 -1.07473,0.0954 z"
           style="font-style:normal;font-variant:normal;font-weight:normal;font-stretch:normal;font-family:'liberation sans';-inkscape-font-specification:'liberation sans';text-align:center;text-anchor:middle;fill:#333333;stroke-width:0.26458332px"
           id="path5488"
           inkscape:original-d="m 112.99741,209.7123 v -0.94809 h 0.99219 v 0.94809 z m 0,7.23194 v -5.96414 h 0.99219 v 5.96414 z"
           inkscape:connector-curvature="0" />
        <path
           d="m 117.04962,213.08516 c 0.037,0.33947 0.0962,0.6485 0.17815,0.92728 0.0859,0.27831 0.20305,0.514 0.35215,0.70695 0.14869,0.18925 0.3323,0.32786 0.55082,0.41528 0.22238,0.0869 0.48631,0.11066 0.79048,0.0702 0.37926,-0.0504 0.6829,-0.18924 0.90865,-0.41421 0.22989,-0.22573 0.34494,-0.53932 0.34712,-0.94012 0.35729,-0.0308 0.71458,-0.0637 1.07186,-0.099 0.003,0.24834 -0.0366,0.49424 -0.11974,0.7376 -0.0832,0.24334 -0.2147,0.46625 -0.39514,0.66819 -0.17646,0.2013 -0.40455,0.37646 -0.68412,0.52432 -0.28002,0.14419 -0.61406,0.24293 -1.00051,0.29448 -0.50595,0.0675 -0.9462,0.0426 -1.31763,-0.0717 -0.37158,-0.11439 -0.68228,-0.29708 -0.93197,-0.54635 -0.24619,-0.25343 -0.43607,-0.5617 -0.57087,-0.92409 -0.13519,-0.36608 -0.22334,-0.76848 -0.26621,-1.20719 -0.0389,-0.39834 -0.0384,-0.75307 4.1e-4,-1.06356 0.0385,-0.31421 0.1071,-0.59113 0.20536,-0.83068 0.10167,-0.24364 0.22714,-0.45131 0.3764,-0.6232 0.14888,-0.17555 0.31348,-0.32002 0.49408,-0.43366 0.18395,-0.11774 0.37952,-0.20971 0.58715,-0.27618 0.20719,-0.0701 0.4183,-0.11924 0.63379,-0.14758 0.3381,-0.0445 0.64426,-0.0404 0.9202,0.0129 0.27589,0.0534 0.52007,0.14517 0.73311,0.27623 0.21618,0.12685 0.40053,0.28754 0.55283,0.48262 0.1523,0.19507 0.27256,0.41169 0.36001,0.65017 -0.34464,0.0812 -0.69015,0.16023 -1.03648,0.23717 -0.0996,-0.31892 -0.27025,-0.55898 -0.51047,-0.72107 -0.24044,-0.16222 -0.556,-0.21621 -0.9496,-0.16448 -0.28872,0.0379 -0.52497,0.1157 -0.70953,0.23463 -0.18116,0.11478 -0.32161,0.27392 -0.42137,0.47794 -0.10015,0.20032 -0.16157,0.4459 -0.18373,0.73668 -0.0184,0.29027 -0.007,0.6273 0.0348,1.0104 0,-1e-5 10e-6,-2e-5 10e-6,-4e-5 z"
           style="font-style:normal;font-variant:normal;font-weight:normal;font-stretch:normal;font-family:'liberation sans';-inkscape-font-specification:'liberation sans';text-align:center;text-anchor:middle;fill:#333333;stroke-width:0.26458332px"
           id="path5490"
           inkscape:original-d="m 116.27163,213.93461 q 0,0.51263 0.0717,0.94258 0.0772,0.42995 0.25356,0.74414 0.17639,0.30868 0.46302,0.47956 0.29214,0.17087 0.71658,0.17087 0.52916,0 0.88194,-0.28663 0.35829,-0.28663 0.44097,-0.88194 l 1.00322,0.0661 q -0.0496,0.36932 -0.21498,0.71107 -0.16536,0.34175 -0.45199,0.60082 -0.28112,0.25907 -0.68902,0.41893 -0.4079,0.15434 -0.94258,0.15434 -0.70004,0 -1.19063,-0.23703 -0.49058,-0.23702 -0.79926,-0.65043 -0.30317,-0.41892 -0.44097,-0.98116 -0.1378,-0.56775 -0.1378,-1.22921 0,-0.60083 0.0992,-1.05834 0.0992,-0.46302 0.27561,-0.80477 0.1819,-0.34727 0.42444,-0.57878 0.24253,-0.23702 0.52365,-0.37482 0.28663,-0.14332 0.60083,-0.20395 0.31419,-0.0661 0.63389,-0.0661 0.50161,0 0.89297,0.13781 0.39137,0.1378 0.67249,0.38033 0.28663,0.23703 0.46302,0.56224 0.17639,0.32522 0.24804,0.70005 l -1.01974,0.0772 q -0.0772,-0.4961 -0.39137,-0.78824 -0.31419,-0.29214 -0.89297,-0.29214 -0.42443,0 -0.71106,0.14331 -0.28112,0.13781 -0.45751,0.42444 -0.17639,0.28112 -0.25356,0.71106 -0.0717,0.42995 -0.0717,1.00873 z"
           inkscape:connector-curvature="0" />
        <path
           d="m 126.06677,214.63945 -0.97797,-4.46002 c -0.0267,-0.12181 -0.0558,-0.24495 -0.0873,-0.36945 -0.0283,-0.12896 -0.0574,-0.25212 -0.0872,-0.36945 -0.0299,-0.11731 -0.0578,-0.22762 -0.0839,-0.33075 9.3e-4,0.004 -0.0729,-0.28062 -0.072,-0.27704 0.3079,-0.0683 0.61511,-0.13873 0.92162,-0.21144 0.0232,0.0812 0.0489,0.17504 0.0773,0.28142 0.0315,0.10188 0.0621,0.20776 0.0917,0.31763 0.0333,0.10901 0.0621,0.21529 0.0864,0.31888 0.0275,0.0991 0.0496,0.1843 0.0664,0.25575 0.007,-0.002 0.0147,-0.003 0.0221,-0.005 0.0177,-0.23801 0.0455,-0.44656 0.0834,-0.62561 0.0408,-0.1835 0.10083,-0.33981 0.18024,-0.46903 0.0786,-0.1328 0.18325,-0.24213 0.31424,-0.32837 0.13013,-0.0898 0.29679,-0.16108 0.50042,-0.21469 0.0786,-0.0207 0.1554,-0.0335 0.23053,-0.0384 0.0742,-0.008 0.1323,-0.0127 0.17443,-0.0127 l 0.23476,0.8786 c -0.07,-1.9e-4 -0.14934,0.008 -0.23822,0.0238 -0.0898,0.0125 -0.18908,0.0329 -0.29797,0.0612 -0.22499,0.0585 -0.40496,0.15712 -0.54082,0.297 -0.13216,0.13893 -0.22832,0.30988 -0.28841,0.51328 -0.0573,0.19889 -0.0812,0.42733 -0.0712,0.68519 0.009,0.25428 0.0474,0.52626 0.11553,0.81548 l 0.71214,3.02135 c -0.35516,0.0835 -0.71062,0.16436 -1.06634,0.24258 z"
           style="font-style:normal;font-variant:normal;font-weight:normal;font-stretch:normal;font-family:'liberation sans';-inkscape-font-specification:'liberation sans';text-align:center;text-anchor:middle;fill:#333333;stroke-width:0.26458332px"
           id="path5492"
           inkscape:original-d="m 124.31386,216.94424 v -4.57508 q 0,-0.18742 -0.006,-0.38034 0,-0.19844 -0.006,-0.38034 -0.006,-0.1819 -0.011,-0.34175 -0.006,-0.15986 -0.011,-0.28663 h 0.93706 q 0.006,0.12677 0.011,0.29214 0.011,0.15985 0.0165,0.33073 0.011,0.17088 0.011,0.33073 0.006,0.15434 0.006,0.26458 h 0.0221 q 0.10473,-0.34175 0.22048,-0.5898 0.12127,-0.25356 0.28112,-0.41341 0.15986,-0.16537 0.38034,-0.24254 0.22049,-0.0827 0.53468,-0.0827 0.12127,0 0.23151,0.022 0.11024,0.0165 0.17088,0.0331 v 0.90951 q -0.0992,-0.0276 -0.23151,-0.0386 -0.13229,-0.0165 -0.29766,-0.0165 -0.34175,0 -0.58429,0.15434 -0.23702,0.15434 -0.39136,0.42995 -0.14883,0.27009 -0.22049,0.65043 -0.0717,0.37483 -0.0717,0.82131 v 3.10885 z"
           inkscape:connector-curvature="0" />
        <path
           d="m 130.10029,210.73957 c 0.0897,0.29895 0.20415,0.56535 0.3448,0.79904 0.14335,0.229 0.31144,0.41382 0.50492,0.55399 0.19615,0.13546 0.41969,0.21967 0.67015,0.25177 0.24925,0.0286 0.52783,-0.007 0.8334,-0.10864 0.44691,-0.14825 0.7749,-0.35307 0.98233,-0.60836 0.21139,-0.25684 0.31772,-0.52711 0.32148,-0.80912 0.32262,-0.0285 0.64553,-0.0594 0.96869,-0.0927 -0.005,0.17827 -0.0363,0.36822 -0.094,0.56961 -0.0553,0.19656 -0.15604,0.39412 -0.30318,0.59192 -0.14834,0.1943 -0.35515,0.38562 -0.62092,0.57199 -0.26302,0.18149 -0.60368,0.34349 -1.02077,0.48192 -0.92803,0.30801 -1.72219,0.27331 -2.35647,-0.0868 -0.63306,-0.36273 -1.07841,-1.04727 -1.35807,-2.04569 -0.15049,-0.53729 -0.20712,-1.01228 -0.17401,-1.42199 0.0321,-0.4136 0.13242,-0.77089 0.29984,-1.07246 0.16752,-0.30173 0.39019,-0.55042 0.6692,-0.74826 0.27801,-0.2014 0.59101,-0.35885 0.94133,-0.47434 0.47649,-0.15708 0.89779,-0.2177 1.26996,-0.17794 0.37533,0.0385 0.70886,0.15499 1.00136,0.35214 0.29462,0.1923 0.55168,0.45247 0.76936,0.78198 0.22123,0.32812 0.41238,0.70112 0.57092,1.11951 l 0.0468,0.12348 c -1.40454,0.53221 -2.82702,1.01689 -4.26707,1.44889 z m 2.99145,-1.78695 c -0.26669,-0.57026 -0.57714,-0.94454 -0.92701,-1.12442 -0.35192,-0.18376 -0.76351,-0.19414 -1.24203,-0.0364 -0.15959,0.0526 -0.31957,0.13354 -0.48081,0.24287 -0.15878,0.10469 -0.29296,0.24493 -0.40327,0.42129 -0.11027,0.17633 -0.18385,0.39264 -0.22079,0.64926 -0.038,0.25294 -0.0134,0.55437 0.0752,0.90322 1.07584,-0.32257 2.14213,-0.67524 3.19869,-1.05578 z"
           style="font-style:normal;font-variant:normal;font-weight:normal;font-stretch:normal;font-family:'liberation sans';-inkscape-font-specification:'liberation sans';text-align:center;text-anchor:middle;fill:#333333;stroke-width:0.26458332px"
           id="path5494"
           inkscape:original-d="m 128.8228,214.17163 q 0,0.46853 0.0937,0.86541 0.0992,0.39136 0.29766,0.67799 0.20395,0.28112 0.51814,0.44098 0.31419,0.15434 0.75516,0.15434 0.64493,0 1.03078,-0.25907 0.39136,-0.25908 0.52916,-0.65595 l 0.87092,0.24805 q -0.0937,0.24804 -0.26458,0.5016 -0.16536,0.24805 -0.44648,0.452 -0.28112,0.19844 -0.70556,0.33073 -0.41892,0.12678 -1.01424,0.12678 -1.32291,0 -2.01744,-0.78824 -0.68902,-0.78824 -0.68902,-2.34267 0,-0.83784 0.20946,-1.41662 0.20946,-0.58429 0.57326,-0.94809 0.36381,-0.3638 0.84887,-0.52365 0.48507,-0.16537 1.03629,-0.16537 0.74965,0 1.25126,0.24254 0.50712,0.24253 0.81028,0.67248 0.30869,0.42444 0.43546,1.00321 0.1323,0.57878 0.1323,1.25126 v 0.13229 z m 3.23013,-0.76068 q -0.0827,-0.94257 -0.47956,-1.37252 -0.39688,-0.43546 -1.14102,-0.43546 -0.24804,0 -0.52365,0.0827 -0.2701,0.0772 -0.50161,0.28112 -0.23151,0.20395 -0.39136,0.55673 -0.15985,0.34726 -0.1819,0.88745 z"
           inkscape:connector-curvature="0" />
        <path
           d="m 138.24092,210.83034 c -0.60722,0.25997 -1.1283,0.30209 -1.55256,0.1336 -0.42516,-0.16885 -0.73596,-0.51134 -0.93896,-1.02295 -0.14473,-0.36475 -0.18979,-0.69242 -0.13784,-0.98178 0.0542,-0.29442 0.17049,-0.55507 0.34845,-0.78295 0.18159,-0.22943 0.41006,-0.43204 0.68608,-0.60949 0.27603,-0.17747 0.56518,-0.33705 0.8683,-0.47928 0.4245,-0.19601 0.84715,-0.39625 1.26795,-0.60054 l -0.13725,-0.29458 c -0.10389,-0.22298 -0.21664,-0.40148 -0.33756,-0.53552 -0.12096,-0.13407 -0.25349,-0.22639 -0.39743,-0.27724 -0.144,-0.0509 -0.30102,-0.0636 -0.47145,-0.0386 -0.16858,0.0201 -0.35369,0.0754 -0.55623,0.16541 -0.1785,0.0793 -0.33413,0.16368 -0.46711,0.25359 -0.13442,0.0865 -0.24076,0.18627 -0.31916,0.29967 -0.0798,0.11001 -0.12856,0.23635 -0.14611,0.37925 -0.019,0.13947 -0.003,0.29998 0.0485,0.48134 -0.34166,0.10982 -0.68383,0.21681 -1.0265,0.3209 -0.0523,-0.23201 -0.0658,-0.45798 -0.0412,-0.67773 0.0231,-0.22319 0.0957,-0.43701 0.2169,-0.64201 0.12473,-0.2065 0.30366,-0.40054 0.53673,-0.58376 0.23517,-0.18815 0.53895,-0.3636 0.91243,-0.52985 0.6924,-0.30819 1.28049,-0.39436 1.77794,-0.24775 0.49452,0.14288 0.88723,0.50363 1.17006,1.089 l 1.11711,2.31206 c 0.12789,0.26469 0.26201,0.44657 0.40334,0.54559 0.13959,0.0956 0.31606,0.0918 0.52817,-0.0125 0.0539,-0.0265 0.10617,-0.0564 0.15674,-0.0896 0.0506,-0.0332 0.0985,-0.0672 0.14373,-0.10209 l 0.27527,0.55256 c -0.10968,0.0874 -0.22296,0.16787 -0.33972,0.24151 -0.11311,0.0719 -0.23877,0.1414 -0.37694,0.20828 -0.18543,0.0898 -0.35622,0.14499 -0.51163,0.16603 -0.15339,0.016 -0.29324,-0.001 -0.41929,-0.0516 -0.12765,-0.0536 -0.24433,-0.13688 -0.35017,-0.24959 -0.10736,-0.11607 -0.20823,-0.26145 -0.30295,-0.43613 -0.0108,0.005 -0.0217,0.0101 -0.0325,0.0151 -0.024,0.22178 -0.0675,0.43205 -0.13054,0.63069 -0.0594,0.19695 -0.15079,0.38393 -0.27436,0.56053 -0.12508,0.17323 -0.28491,0.33523 -0.47946,0.48523 -0.19081,0.14833 -0.42793,0.28385 -0.7109,0.405 0,0 1.2e-4,6e-5 1.2e-4,6e-5 z m -0.0665,-0.78046 c 0.31651,-0.13682 0.56883,-0.31049 0.75597,-0.51872 0.18934,-0.21327 0.32219,-0.43694 0.3991,-0.66991 0.0805,-0.23467 0.11306,-0.46615 0.0986,-0.69416 -0.0145,-0.22802 -0.0634,-0.43018 -0.14557,-0.60657 l -0.20704,-0.4444 c -0.34384,0.16829 -0.68896,0.33391 -1.03538,0.49678 -0.23249,0.10831 -0.44903,0.22371 -0.64992,0.34671 -0.19863,0.11838 -0.36058,0.25363 -0.48615,0.40664 -0.12555,0.15296 -0.20543,0.32574 -0.23943,0.51887 -0.0304,0.1915 0.005,0.41122 0.1079,0.65856 0.1238,0.29827 0.30544,0.49306 0.547,0.58293 0.24498,0.0882 0.531,0.0632 0.85493,-0.0768 1e-5,2e-5 2e-5,4e-5 3e-5,6e-5 z"
           style="font-style:normal;font-variant:normal;font-weight:normal;font-stretch:normal;font-family:'liberation sans';-inkscape-font-specification:'liberation sans';text-align:center;text-anchor:middle;fill:#333333;stroke-width:0.26458332px"
           id="path5496"
           inkscape:original-d="m 135.86733,217.05449 q -0.89848,0 -1.35047,-0.47405 -0.452,-0.47404 -0.452,-1.30087 0,-0.5898 0.22049,-0.96462 0.22599,-0.38034 0.58428,-0.59532 0.36381,-0.21497 0.82683,-0.29765 0.46302,-0.0827 0.94257,-0.0937 l 1.33946,-0.0221 v -0.32521 q 0,-0.36932 -0.0772,-0.62839 -0.0772,-0.25907 -0.23703,-0.41892 -0.15985,-0.15985 -0.40238,-0.23151 -0.23702,-0.0772 -0.56224,-0.0772 -0.28663,0 -0.51814,0.0441 -0.23151,0.0386 -0.40239,0.14883 -0.17088,0.10473 -0.27561,0.29215 -0.10473,0.1819 -0.1378,0.46302 l -1.03629,-0.0937 q 0.0551,-0.35278 0.20946,-0.64492 0.15434,-0.29766 0.43546,-0.51263 0.28664,-0.21498 0.71107,-0.33073 0.42995,-0.12127 1.03629,-0.12127 1.12448,0 1.69223,0.51814 0.56775,0.51263 0.56775,1.48829 v 2.56866 q 0,0.44097 0.11575,0.66697 0.11576,0.22049 0.44098,0.22049 0.0827,0 0.16536,-0.011 0.0827,-0.011 0.15985,-0.0276 v 0.61736 q -0.18741,0.0441 -0.37482,0.0661 -0.1819,0.0221 -0.39137,0.0221 -0.28112,0 -0.48506,-0.0717 -0.19844,-0.0772 -0.32522,-0.226 -0.12678,-0.15434 -0.19293,-0.37483 -0.0661,-0.22599 -0.0827,-0.52365 h -0.0331 q -0.15985,0.28663 -0.35278,0.51814 -0.18741,0.23151 -0.44097,0.39688 -0.25356,0.15985 -0.57878,0.24804 -0.3197,0.0882 -0.73863,0.0882 z m 0.226,-0.74414 q 0.47405,0 0.82682,-0.17088 0.35829,-0.17639 0.5898,-0.44648 0.23703,-0.2701 0.35278,-0.5898 0.11576,-0.31971 0.11576,-0.61185 v -0.49059 l -1.0859,0.022 q -0.3638,0.006 -0.69453,0.0551 -0.32521,0.0441 -0.57326,0.18191 -0.24805,0.1378 -0.39688,0.38585 -0.14331,0.24804 -0.14331,0.65043 0,0.48507 0.25907,0.74965 0.26458,0.26459 0.74965,0.26459 z"
           inkscape:connector-curvature="0" />
        <path
           d="m 146.08742,205.70887 c 0.0175,0.43093 -0.0787,0.801 -0.2888,1.10861 -0.20645,0.3054 -0.52643,0.57766 -0.95913,0.81212 -0.7277,0.39432 -1.38825,0.45043 -1.96523,0.17721 -0.5753,-0.27594 -1.08898,-0.87526 -1.5542,-1.79413 -0.94151,-1.85966 -0.7291,-3.11804 0.56679,-3.82279 0.40471,-0.22009 0.78001,-0.33438 1.13009,-0.34115 0.34979,-0.007 0.69625,0.0985 1.04028,0.31683 0.003,-0.002 0.007,-0.004 0.01,-0.006 -0.0183,-0.0319 -0.0484,-0.0803 -0.0904,-0.14535 -0.0402,-0.0702 -0.0832,-0.14102 -0.12883,-0.2124 -0.0439,-0.0766 -0.085,-0.14843 -0.12345,-0.21546 -0.0384,-0.067 -0.0658,-0.11493 -0.0823,-0.14366 l -1.1495,-2.00629 c 0.28568,-0.16399 0.57067,-0.3298 0.85496,-0.49735 l 3.53115,5.99736 c 0.0728,0.12366 0.14282,0.24257 0.21003,0.35671 0.009,0.0135 0.18658,0.29433 0.19514,0.30782 0.0598,0.0929 0.11178,0.17332 0.156,0.2412 0.043,0.0644 0.0745,0.10988 0.0944,0.13655 -0.29795,0.1755 -0.59701,0.34937 -0.89716,0.52156 -0.0253,-0.0279 -0.0579,-0.0686 -0.0979,-0.12199 -0.0386,-0.0585 -0.0831,-0.12406 -0.13371,-0.19687 -0.0477,-0.0744 -0.0969,-0.15222 -0.14766,-0.23341 -0.0532,-0.084 -0.10355,-0.16751 -0.15113,-0.2505 -0.006,0.004 -0.0128,0.007 -0.0193,0.011 z m -3.80256,-0.23031 c 0.19111,0.36489 0.37886,0.66463 0.56453,0.89954 0.1856,0.23482 0.37735,0.40808 0.57572,0.51957 0.1966,0.10817 0.40048,0.15608 0.61117,0.14336 0.21061,-0.0127 0.43767,-0.085 0.67974,-0.2172 0.2491,-0.13608 0.44734,-0.29416 0.59429,-0.47297 0.15049,-0.1808 0.24168,-0.38841 0.27366,-0.62208 0.0336,-0.23891 0.007,-0.50944 -0.0795,-0.81173 -0.0866,-0.30241 -0.23995,-0.64453 -0.45952,-1.02773 -0.21026,-0.36697 -0.41983,-0.65852 -0.62723,-0.87456 -0.20931,-0.21931 -0.41979,-0.37251 -0.63112,-0.45987 -0.2114,-0.0874 -0.42491,-0.11475 -0.64112,-0.0824 -0.21475,0.0273 -0.43757,0.10468 -0.66966,0.23184 -0.21882,0.11989 -0.38799,0.25952 -0.50799,0.42007 -0.11996,0.16049 -0.18975,0.35182 -0.20948,0.57451 -0.0197,0.22262 0.0131,0.48177 0.099,0.77716 0.0874,0.29025 0.22982,0.62487 0.4276,1.0025 -1e-5,0 -1e-5,0 -1e-5,0 z"
           style="font-style:normal;font-variant:normal;font-weight:normal;font-stretch:normal;font-family:'liberation sans';-inkscape-font-specification:'liberation sans';text-align:center;text-anchor:middle;fill:#333333;stroke-width:0.26458332px"
           id="path5498"
           inkscape:original-d="m 144.39463,215.98513 q -0.27561,0.57326 -0.73312,0.82131 -0.45199,0.24805 -1.12447,0.24805 -1.13,0 -1.66467,-0.76068 -0.52917,-0.76068 -0.52917,-2.30408 0,-3.11988 2.19384,-3.11988 0.67799,0 1.12999,0.24805 0.45199,0.24805 0.7276,0.78824 h 0.011 q 0,-0.0551 -0.006,-0.17088 0,-0.12127 -0.006,-0.24805 0,-0.13229 0,-0.24804 0,-0.11576 0,-0.16537 v -2.30959 h 0.99219 v 6.95082 q 0,0.21498 0,0.41342 0.006,0.19843 0.011,0.3638 0.006,0.16536 0.011,0.28663 0.006,0.11576 0.011,0.16536 h -0.94809 q -0.011,-0.0551 -0.0221,-0.15434 -0.006,-0.10473 -0.0165,-0.23702 -0.006,-0.13229 -0.011,-0.27561 -0.006,-0.14882 -0.006,-0.29214 z m -3.00963,-2.02847 q 0,0.61736 0.0772,1.05833 0.0772,0.44097 0.24804,0.72761 0.17088,0.28111 0.43546,0.41341 0.26459,0.13229 0.64492,0.13229 0.39137,0 0.68902,-0.12678 0.30317,-0.12678 0.50161,-0.4079 0.20395,-0.28663 0.30868,-0.74414 0.10473,-0.45751 0.10473,-1.11897 0,-0.6339 -0.10473,-1.06936 -0.10473,-0.44097 -0.30868,-0.71106 -0.20395,-0.2701 -0.50161,-0.38585 -0.29214,-0.12127 -0.67799,-0.12127 -0.3638,0 -0.62839,0.12678 -0.26458,0.12678 -0.44097,0.4079 -0.17639,0.28112 -0.26458,0.73311 -0.0827,0.44649 -0.0827,1.0859 z"
           inkscape:connector-curvature="0" />
        <path
           d="m 152.10417,201.12114 c 0.15708,0.23093 0.24881,0.4708 0.27416,0.7202 0.0266,0.24407 -0.0104,0.49119 -0.11168,0.74097 -0.10332,0.24666 -0.26935,0.49494 -0.49862,0.7435 -0.22791,0.24324 -0.51892,0.48017 -0.87287,0.70859 -0.3169,0.20449 -0.61976,0.36455 -0.90713,0.48052 -0.28205,0.11695 -0.55161,0.18526 -0.80766,0.20534 -0.2561,0.0201 -0.50059,-0.0113 -0.73303,-0.0935 -0.23102,-0.0875 -0.44927,-0.23259 -0.65514,-0.43488 0.23962,-0.21185 0.47786,-0.42473 0.71476,-0.63861 0.2458,0.22429 0.53014,0.32507 0.85301,0.30055 0.32058,-0.0276 0.69739,-0.17855 1.12576,-0.45488 0.19411,-0.12521 0.36305,-0.25266 0.50678,-0.38182 0.14708,-0.13136 0.2593,-0.26475 0.33676,-0.3997 0.0754,-0.13805 0.11181,-0.277 0.10933,-0.41666 -0.001,-0.14496 -0.051,-0.29077 -0.14879,-0.43765 -0.0998,-0.14992 -0.21909,-0.24719 -0.35731,-0.29214 -0.14031,-0.048 -0.29864,-0.0599 -0.47516,-0.036 -0.17656,0.0239 -0.37628,0.0759 -0.5997,0.15544 -0.22092,0.0739 -0.46823,0.15643 -0.73479,0.24444 -0.24736,0.0841 -0.49718,0.15984 -0.74931,0.22718 -0.25213,0.0674 -0.49721,0.10088 -0.73473,0.10083 -0.23617,-0.005 -0.45604,-0.0559 -0.65946,-0.15135 -0.20349,-0.0955 -0.37844,-0.26464 -0.52592,-0.50661 -0.28342,-0.46499 -0.32727,-0.92273 -0.13865,-1.37203 0.19027,-0.45531 0.60542,-0.88282 1.24585,-1.29482 0.56761,-0.36515 1.07745,-0.56332 1.53731,-0.59113 0.46234,-0.0299 0.88171,0.13459 1.25729,0.49713 -0.23608,0.2043 -0.4732,0.4077 -0.71136,0.61013 -0.11427,-0.10946 -0.23811,-0.1817 -0.37139,-0.21694 -0.13532,-0.0383 -0.2742,-0.048 -0.41677,-0.0291 -0.14459,0.0158 -0.29229,0.0575 -0.44338,0.12513 -0.14991,0.0624 -0.29823,0.14095 -0.44521,0.23554 -0.38984,0.25091 -0.64214,0.49048 -0.75658,0.72339 -0.11429,0.2326 -0.0994,0.46601 0.0468,0.70009 0.0857,0.13733 0.19101,0.22992 0.31615,0.27749 0.12641,0.0424 0.2713,0.0558 0.43455,0.0397 0.16453,-0.0212 0.34977,-0.0645 0.55537,-0.13039 0.2035,-0.0689 0.42725,-0.1471 0.67025,-0.23468 0.16168,-0.0567 0.32854,-0.11285 0.50064,-0.16855 0.17009,-0.0588 0.34128,-0.10566 0.51373,-0.14067 0.17367,-0.0402 0.34476,-0.0637 0.51345,-0.0705 0.16987,-0.012 0.33393,0.002 0.49232,0.041 0.15837,0.0394 0.30891,0.10825 0.45154,0.20682 0.14585,0.0964 0.27892,0.23252 0.39878,0.40873 1e-5,1e-5 2e-5,1e-5 3e-5,2e-5 z"
           style="font-style:normal;font-variant:normal;font-weight:normal;font-stretch:normal;font-family:'liberation sans';-inkscape-font-specification:'liberation sans';text-align:center;text-anchor:middle;fill:#333333;stroke-width:0.26458332px"
           id="path5500"
           inkscape:original-d="m 151.38956,215.29611 q 0,0.41892 -0.16537,0.74965 -0.15985,0.32522 -0.46853,0.55122 -0.30868,0.22048 -0.76068,0.34175 -0.44648,0.11576 -1.02526,0.11576 -0.51814,0 -0.93706,-0.0827 -0.41341,-0.0772 -0.72761,-0.25356 -0.31419,-0.17639 -0.52916,-0.46302 -0.20947,-0.29215 -0.30868,-0.71107 l 0.87643,-0.17088 q 0.12678,0.47956 0.52365,0.70556 0.39688,0.22048 1.10243,0.22048 0.31971,0 0.58429,-0.0441 0.2701,-0.0441 0.46302,-0.14883 0.19293,-0.11025 0.29766,-0.28663 0.11024,-0.18191 0.11024,-0.44649 0,-0.27009 -0.12678,-0.44097 -0.12678,-0.17639 -0.35278,-0.29215 -0.22599,-0.11575 -0.55121,-0.19843 -0.31971,-0.0882 -0.70556,-0.19293 -0.35829,-0.0937 -0.71106,-0.20946 -0.35278,-0.11576 -0.63941,-0.30317 -0.28112,-0.19292 -0.45751,-0.47404 -0.17639,-0.28112 -0.17639,-0.70556 0,-0.8158 0.57877,-1.24023 0.58429,-0.42995 1.69775,-0.42995 0.98667,0 1.56545,0.34726 0.58429,0.34727 0.73863,1.11346 l -0.89297,0.11024 q -0.0496,-0.23151 -0.1819,-0.38585 -0.13229,-0.15985 -0.31971,-0.25356 -0.18741,-0.0992 -0.42443,-0.1378 -0.23151,-0.0441 -0.48507,-0.0441 -0.67249,0 -0.99219,0.20395 -0.31971,0.20395 -0.31971,0.61736 0,0.24254 0.11576,0.40239 0.12127,0.15434 0.33073,0.26458 0.21497,0.10473 0.51263,0.18742 0.29766,0.0772 0.65595,0.16536 0.23702,0.0606 0.48506,0.13229 0.24805,0.0662 0.47956,0.16537 0.23702,0.0937 0.44097,0.22599 0.20947,0.12678 0.36381,0.30869 0.15434,0.1819 0.24253,0.42443 0.0937,0.24254 0.0937,0.56224 z"
           inkscape:connector-curvature="0" />
      </g>
    </g>
  </g>
</svg>
